<?xml version="1.0" standalone="no"?>
<!DOCTYPE svg PUBLIC "-//W3C//DTD SVG 20010904//EN"
 "http://www.w3.org/TR/2001/REC-SVG-20010904/DTD/svg10.dtd">
<svg version="1.0" xmlns="http://www.w3.org/2000/svg"
 width="900.000000pt" height="840.000000pt" viewBox="0 0 900.000000 840.000000"
 preserveAspectRatio="xMidYMid meet">

<g transform="translate(0.000000,840.000000) scale(0.100000,-0.100000)"
fill="#000000" stroke="none">
<path d="M4543 8389 c-90 -11 -184 -40 -312 -95 l-113 -48 121 -33 c66 -18
146 -42 178 -54 91 -33 118 -37 170 -27 88 17 221 12 298 -12 288 -91 599
-386 776 -737 66 -132 86 -199 98 -339 11 -116 31 -646 31 -803 l0 -78 328
-112 c561 -191 677 -235 677 -256 0 -25 -81 -78 -383 -255 l-244 -142 -329
117 c-306 109 -329 119 -329 141 0 94 -22 658 -31 784 -17 258 -31 327 -90
460 -88 195 -218 384 -393 570 -176 185 -320 293 -526 395 -159 78 -167 80
-425 80 -222 -1 -233 -2 -310 -28 -97 -32 -157 -72 -254 -168 -129 -127 -178
-225 -201 -401 -6 -46 -15 -263 -19 -483 -5 -220 -12 -408 -16 -417 -4 -10
-15 -18 -24 -18 -19 0 -595 201 -693 241 -32 13 -58 27 -58 31 0 16 88 79 212
150 73 43 144 87 158 98 l25 20 -55 -6 c-287 -31 -790 -111 -807 -128 -3 -3
-14 -83 -24 -178 -20 -180 -105 -971 -139 -1283 -11 -99 -37 -346 -59 -550
-39 -355 -71 -658 -146 -1385 -20 -184 -47 -443 -60 -575 -14 -132 -34 -325
-45 -430 -11 -104 -22 -206 -25 -225 l-5 -36 173 -86 c94 -48 541 -274 992
-503 1122 -569 2272 -1145 2675 -1341 l335 -163 35 21 c195 118 1550 1155
1712 1311 74 72 80 90 68 199 -6 51 -71 705 -146 1453 -127 1280 -150 1506
-224 2215 -32 297 -78 682 -84 687 -3 4 -408 146 -666 235 -96 33 -201 69
-232 80 l-57 19 3 142 c16 683 -76 991 -418 1403 -328 394 -740 593 -1123 543z
m-205 -798 c182 -49 361 -167 520 -345 81 -91 143 -187 228 -356 l77 -152 -6
-437 c-6 -398 -12 -510 -31 -528 -10 -11 -305 88 -1111 372 -198 70 -379 134
-402 142 l-43 15 0 331 c0 560 27 711 153 844 73 77 155 119 272 137 66 10
271 -3 343 -23z m2541 -2286 c86 -788 323 -3435 333 -3719 l3 -79 -340 -239
c-410 -289 -938 -653 -1057 -730 -66 -43 -88 -53 -92 -42 -5 14 14 234 74 854
108 1108 193 2022 295 3145 25 281 48 525 51 544 3 20 18 45 37 63 63 59 287
197 633 389 16 9 32 13 36 10 3 -3 16 -91 27 -196z"/>
<path d="M4079 7334 c-61 -18 -141 -98 -179 -180 -39 -80 -58 -198 -42 -253
16 -51 21 -53 447 -211 491 -182 573 -208 585 -190 5 8 10 61 10 117 l0 102
-57 21 c-70 26 -587 218 -625 232 l-26 9 -4 170 c-3 155 -5 172 -22 185 -24
17 -28 17 -87 -2z"/>
</g>
</svg>
