<?xml version="1.0" standalone="no"?>
<!DOCTYPE svg PUBLIC "-//W3C//DTD SVG 20010904//EN"
 "http://www.w3.org/TR/2001/REC-SVG-20010904/DTD/svg10.dtd">
<svg version="1.0" xmlns="http://www.w3.org/2000/svg"
 width="768.000000pt" height="444.000000pt" viewBox="0 0 768.000000 444.000000"
 preserveAspectRatio="xMidYMid meet">

<g transform="translate(0.000000,444.000000) scale(0.100000,-0.100000)"
fill="#000000" stroke="none">
<path d="M3175 3639 c-419 -17 -773 -41 -829 -55 -195 -48 -385 -231 -442
-423 -15 -52 -38 -272 -55 -531 -26 -389 11 -1150 62 -1304 62 -185 236 -347
429 -400 30 -8 134 -19 230 -25 96 -6 265 -16 375 -23 322 -20 1507 -17 1885
5 427 25 484 31 561 60 184 70 340 236 388 412 43 163 75 929 52 1275 -17 262
-40 479 -56 533 -56 189 -249 374 -441 421 -59 15 -401 37 -869 56 -274 11
-1008 11 -1290 -1z m770 -1184 c193 -84 372 -163 399 -175 26 -12 44 -25 40
-30 -5 -4 -139 -65 -299 -135 -159 -70 -400 -176 -535 -236 -134 -59 -248
-105 -252 -103 -9 6 -11 948 -2 956 3 3 71 -23 152 -59 81 -35 305 -134 497
-218z"/>
</g>
</svg>
