<?xml version="1.0" standalone="no"?>
<!DOCTYPE svg PUBLIC "-//W3C//DTD SVG 20010904//EN"
 "http://www.w3.org/TR/2001/REC-SVG-20010904/DTD/svg10.dtd">
<svg version="1.0" xmlns="http://www.w3.org/2000/svg"
 width="729.000000pt" height="421.000000pt" viewBox="0 0 729.000000 421.000000"
 preserveAspectRatio="xMidYMid meet">

<g transform="translate(0.000000,421.000000) scale(0.100000,-0.100000)"
fill="#000000" stroke="none">
<path d="M2605 4203 c-270 -33 -492 -135 -678 -312 -172 -164 -281 -364 -334
-611 -17 -79 -18 -158 -18 -1140 0 -978 1 -1061 18 -1144 91 -448 401 -774
856 -899 75 -21 94 -21 1160 -24 960 -3 1094 -2 1170 12 466 87 822 441 918
911 17 83 18 166 18 1144 0 982 -1 1061 -18 1140 -90 420 -369 737 -763 869
-180 61 -193 61 -1296 60 -552 -1 -1016 -4 -1033 -6z m2190 -392 c278 -93 469
-297 535 -574 19 -79 20 -121 20 -1094 0 -1097 1 -1079 -55 -1221 -89 -223
-282 -395 -521 -464 l-79 -23 -1050 0 -1050 0 -78 23 c-218 63 -400 213 -497
409 -17 35 -42 106 -56 159 l-24 97 0 1016 c0 977 1 1019 20 1098 69 290 279
504 564 579 l91 23 1055 -2 1055 -3 70 -23z"/>
<path d="M4694 3506 c-130 -32 -216 -158 -200 -293 8 -68 26 -104 79 -157 83
-82 210 -98 317 -40 62 33 105 90 127 164 35 122 -29 257 -147 309 -62 27
-116 32 -176 17z"/>
<path d="M3435 3184 c-330 -73 -597 -279 -744 -572 -143 -286 -147 -643 -11
-927 60 -124 116 -202 214 -301 168 -167 358 -263 591 -300 116 -18 196 -17
320 1 353 53 644 270 805 600 110 225 131 524 53 770 -84 266 -271 491 -523
627 -61 33 -140 64 -230 89 -102 28 -372 36 -475 13z m405 -375 c205 -67 350
-192 436 -374 47 -99 65 -175 65 -287 1 -212 -69 -378 -220 -521 -80 -75 -147
-115 -256 -153 -72 -26 -93 -28 -220 -29 -132 0 -145 2 -226 31 -221 79 -396
268 -454 489 -21 80 -21 261 0 340 21 82 85 208 140 277 100 124 269 220 445
252 59 11 226 -3 290 -25z"/>
</g>
</svg>
