<svg version="1.1" id="Layer_1" xmlns="http://www.w3.org/2000/svg" xmlns:xlink="http://www.w3.org/1999/xlink" x="0px" y="0px"
	 width="100%" viewBox="0 0 433 259" enable-background="new 0 0 433 259" xml:space="preserve">
<path fill="#010101" opacity="1.000000" stroke="none" 
	d="
M311.000000,260.000000 
	C207.333359,260.000000 104.166702,260.000000 1.000041,260.000000 
	C1.000028,173.666702 1.000028,87.333405 1.000014,1.000076 
	C145.333267,1.000051 289.666534,1.000051 433.999878,1.000025 
	C433.999908,87.333260 433.999908,173.666519 433.999939,259.999878 
	C393.166656,260.000000 352.333344,260.000000 311.000000,260.000000 
M97.437469,138.716019 
	C96.977509,138.141006 96.517548,137.565979 95.635857,136.471848 
	C94.586967,135.391785 93.538071,134.311722 92.159042,132.673050 
	C91.378189,132.587158 90.597328,132.501266 89.051849,132.188599 
	C87.729599,132.226532 86.407341,132.264465 84.796936,131.671463 
	C83.877960,132.137024 82.958977,132.602600 82.259720,133.179810 
	C82.259720,133.179810 82.194954,133.417618 81.603119,133.131516 
	C80.904984,133.531372 80.206841,133.931213 78.690720,134.532135 
	C76.117065,134.651627 73.543411,134.771133 70.582062,134.359955 
	C69.399406,134.527847 68.216743,134.695724 66.356125,135.027954 
	C65.921410,134.886856 65.486702,134.745758 64.924217,133.831238 
	C64.611778,131.083145 64.423813,128.312881 63.939476,125.595428 
	C63.655998,124.004929 62.899742,122.498688 62.165726,120.066948 
	C62.150368,117.033669 62.135010,114.000397 62.698299,110.410645 
	C62.802818,106.449692 64.465515,102.219070 60.426144,98.104507 
	C60.375481,96.376358 60.324818,94.648209 60.804447,92.366951 
	C60.250988,89.904472 59.697529,87.441994 58.894482,84.262787 
	C58.920319,83.511063 58.946159,82.759338 59.565655,81.422821 
	C59.698990,78.795097 59.940189,76.167648 59.946842,73.539604 
	C59.974583,62.577202 59.948727,62.577141 49.296158,60.582329 
	C43.798855,59.552898 40.308014,64.024788 42.099712,70.735352 
	C41.968426,71.477333 41.837139,72.219307 40.944839,73.173599 
	C40.725498,79.104218 40.480225,85.034286 40.353622,90.966888 
	C40.346313,91.309410 41.304081,91.672531 42.027504,92.835129 
	C42.017681,94.223602 42.007862,95.612068 41.406780,97.518684 
	C41.023590,100.943626 39.819572,104.552490 43.818703,107.697083 
	C43.796215,108.154015 43.773727,108.610954 43.206242,109.676704 
	C43.147003,112.782143 42.821533,115.913620 43.121811,118.983894 
	C43.323109,121.042145 44.411964,123.013580 45.307579,125.832443 
	C45.236263,127.213409 45.164948,128.594376 44.398464,130.370682 
	C43.924568,133.984390 43.244389,137.589386 43.091118,141.216644 
	C43.039013,142.449768 44.314808,143.738998 45.279739,145.414917 
	C45.285374,145.746078 45.291008,146.077255 45.082664,147.214691 
	C45.462891,150.558395 47.494198,151.816254 50.893433,151.615555 
	C50.893433,151.615555 51.050999,151.781235 51.116638,152.504700 
	C52.868763,154.398987 54.718296,155.569199 57.944069,153.132141 
	C62.586811,152.999191 67.229553,152.866241 72.591652,153.105164 
	C73.399559,153.095703 74.207466,153.086258 75.460281,153.609055 
	C76.633850,153.038361 77.807426,152.467682 79.617554,151.553497 
	C80.774132,151.339035 81.930702,151.124573 83.741768,151.485779 
	C85.524940,150.552078 87.308113,149.618378 89.617462,148.202438 
	C91.584587,146.727600 93.551712,145.252747 96.242836,143.848007 
	C96.425346,142.880493 96.607857,141.912994 96.773117,140.300446 
	C96.827576,139.874542 96.882027,139.448624 97.437469,138.716019 
M317.877167,117.105186 
	C318.612854,116.431839 319.348541,115.758484 320.759216,114.942368 
	C321.597595,113.705284 322.436005,112.468193 323.907959,110.938133 
	C324.824249,110.001312 326.173981,109.223549 326.585693,108.101578 
	C329.054474,101.374268 330.359314,94.419159 327.896912,87.458023 
	C326.830017,84.441933 324.701660,81.801308 322.749359,78.854187 
	C322.749359,78.854187 322.749451,78.519264 322.886627,77.768616 
	C322.214813,77.198410 321.543030,76.628204 320.279633,75.782845 
	C319.886475,75.269783 319.493286,74.756714 319.056244,73.545532 
	C317.807434,72.829636 316.558624,72.113739 315.083405,71.361504 
	C315.083405,71.361504 314.960876,71.167694 314.909973,70.426788 
	C314.134186,70.119881 313.358368,69.812965 312.581726,69.416153 
	C312.581726,69.416153 312.496979,69.446205 312.719025,68.726280 
	C310.740540,66.232834 308.731506,63.804291 304.286865,65.089516 
	C303.866882,64.913857 303.446899,64.738190 303.041626,63.835823 
	C302.674377,62.983101 302.312714,61.395538 301.939026,61.392693 
	C298.640808,61.367603 295.340424,61.624054 291.303131,61.930538 
	C289.845978,61.878311 288.388794,61.826080 286.198090,61.429554 
	C285.132019,61.286713 284.065918,61.143871 282.843292,60.229134 
	C279.747498,58.794220 276.655243,57.399841 273.371735,61.246311 
	C272.928467,61.214340 272.485199,61.182369 271.638794,60.594357 
	C268.029633,60.653164 264.419617,60.710892 265.006927,65.986237 
	C265.006927,65.986237 264.954529,65.974602 264.250122,65.938332 
	C263.298767,66.206169 262.347412,66.474007 260.684845,66.942070 
	C262.342072,67.933105 263.277191,68.492317 264.435394,69.655540 
	C264.387451,70.076424 264.339539,70.497307 263.699097,71.263016 
	C264.371979,72.855019 265.044861,74.447029 265.939392,76.938766 
	C266.065063,80.969009 266.190735,84.999260 266.062653,89.789879 
	C265.949646,90.847824 265.836609,91.905762 265.048737,93.097069 
	C261.741913,96.224678 264.490112,99.589569 264.896606,103.639046 
	C264.823425,109.135338 264.750275,114.631638 264.252136,120.984756 
	C264.749176,123.000977 265.246185,125.017197 266.004761,127.504883 
	C266.093201,127.661331 266.181641,127.817787 266.034607,128.888245 
	C266.040070,134.921097 266.045563,140.953949 265.451569,147.178497 
	C264.339996,147.431503 263.228424,147.684525 262.116852,147.937531 
	C262.088776,148.363129 262.060699,148.788727 262.032593,149.214340 
	C263.719788,149.469574 265.406952,149.724808 267.560028,150.283813 
	C268.053436,150.825729 268.546844,151.367630 269.052002,152.658661 
	C269.337250,153.947769 269.622467,155.236877 270.056885,157.200104 
	C266.907471,156.016022 264.643951,155.165009 262.103882,154.283310 
	C262.103882,154.283310 261.994507,154.027420 262.027893,153.244736 
	C258.629517,151.850464 255.252823,150.393066 251.784683,149.201874 
	C251.549850,149.121201 250.626556,151.044983 249.999130,152.000229 
	C249.999130,152.000229 250.036789,152.022095 249.387833,152.016083 
	C249.444138,153.027985 249.500443,154.039871 249.959717,155.417847 
	C249.979080,155.598282 249.998459,155.778732 249.953613,156.819305 
	C250.807755,163.978134 246.259689,167.595062 240.685959,170.410782 
	C241.395294,171.288162 241.905243,171.918900 242.238235,172.904816 
	C242.070007,173.119522 241.857254,173.272079 240.841232,173.151031 
	C236.211288,175.904022 231.581329,178.657013 226.183990,181.866302 
	C226.167953,182.191895 226.096024,183.652008 225.899841,185.325943 
	C225.899841,185.325943 225.653519,185.347565 224.843582,185.140747 
	C223.329880,186.212112 221.816177,187.283478 220.095688,188.016678 
	C220.095688,188.016678 220.329361,188.336960 219.534500,188.100113 
	C215.534225,189.482956 211.599747,191.113647 207.519867,192.196533 
	C199.275177,194.384888 191.038574,196.817535 182.640747,198.166473 
	C168.954071,200.365005 155.409851,199.129532 142.174652,194.659210 
	C131.799622,191.154938 123.500748,184.764236 115.998535,177.043396 
	C114.472229,175.472610 112.411362,174.421219 110.487770,172.988876 
	C110.487770,172.988876 110.429497,172.819931 110.769508,171.905075 
	C111.017487,168.793304 111.723137,165.624634 111.345863,162.590622 
	C111.110634,160.698898 109.642830,158.182724 108.023407,157.394196 
	C103.998062,155.434219 95.521950,161.781113 95.292450,166.841812 
	C95.292450,166.841812 95.020927,167.003754 94.274208,167.079926 
	C93.751183,169.924744 93.228157,172.769547 92.705139,175.614365 
	C95.501183,176.016418 98.297226,176.418488 101.839279,176.927811 
	C103.395927,180.002472 105.510963,184.435593 107.901428,188.714874 
	C108.471169,189.734772 109.961037,190.240692 110.998428,190.998962 
	C110.998428,190.998962 111.018990,190.971924 110.944618,191.713379 
	C112.174576,194.879654 113.180595,198.262207 117.366295,198.648071 
	C117.366295,198.648071 117.531487,198.525299 117.258545,199.220398 
	C124.549187,209.651077 136.088699,213.317047 147.077698,217.814255 
	C147.425568,217.956604 148.331711,216.734756 149.702560,216.011734 
	C151.137650,216.326614 152.572723,216.641510 154.103607,217.676880 
	C156.424225,217.983231 158.744827,218.289581 161.825729,218.389847 
	C162.860123,218.512131 163.894531,218.634399 165.212357,219.325668 
	C169.832962,219.136917 174.453568,218.948151 179.935730,218.512100 
	C182.635376,218.381027 185.335007,218.249954 188.521271,218.681320 
	C190.348450,218.126572 192.175629,217.571823 194.573730,216.651169 
	C195.452652,216.589905 196.331573,216.528656 198.124207,216.831757 
	C202.119247,216.951324 206.205383,217.384781 209.425430,213.397125 
	C209.425430,213.397125 209.851852,213.351562 209.851852,213.351562 
	C209.851852,213.351562 210.245834,213.520950 211.078033,213.839310 
	C214.976227,212.728790 218.952774,211.827377 222.735916,210.409790 
	C224.359650,209.801331 225.581528,208.120438 227.147537,206.685074 
	C227.147537,206.685074 227.435776,206.723053 228.209351,206.930450 
	C232.963898,208.541321 234.953461,205.220490 237.183441,201.711060 
	C237.183441,201.711060 237.521225,201.773987 238.303299,201.947662 
	C239.533447,200.954361 240.763580,199.961060 242.119736,198.711838 
	C242.119736,198.711838 242.404892,198.704330 243.224014,198.906448 
	C245.848404,198.818146 248.168777,198.366699 248.091003,194.688278 
	C248.091003,194.688278 248.344925,194.646011 249.143280,194.851212 
	C250.296402,193.764084 251.449524,192.676956 252.947006,192.012802 
	C252.835968,191.869324 252.724945,191.725861 253.319443,191.813187 
	C257.713806,189.245926 261.839874,186.439285 263.114441,180.468597 
	C263.409973,180.312592 263.705475,180.156586 264.664703,180.353806 
	C266.683197,180.904495 268.673553,181.722641 270.727264,181.939041 
	C273.367615,182.217270 275.160034,181.230301 274.179260,177.151245 
	C274.117798,174.768051 274.056305,172.384872 274.540771,169.635162 
	C274.024261,167.995575 273.256287,166.388031 273.042389,164.709869 
	C272.563293,160.950882 272.359833,157.156738 272.857727,153.246674 
	C274.229401,153.253296 275.601074,153.259933 277.034027,153.913300 
	C280.696655,155.443726 281.546722,152.898636 283.041016,149.967636 
	C283.702637,148.398483 284.895081,146.841858 284.932495,145.257965 
	C285.081116,138.963867 284.869171,132.661224 285.574860,126.153259 
	C288.042358,126.178009 290.509857,126.202759 293.042572,126.837151 
	C294.388092,126.283768 295.733582,125.730377 297.019928,124.897293 
	C297.019928,124.897293 296.878387,124.648872 297.629639,124.879105 
	C298.412170,124.892723 299.194702,124.906334 300.380524,125.484856 
	C302.968719,124.278679 305.556946,123.072495 308.490326,121.473122 
	C308.988983,121.401093 309.487640,121.329063 310.315674,121.705559 
	C311.629089,120.913040 312.942535,120.120529 314.881897,119.165260 
	C315.668915,118.540977 316.455933,117.916695 317.877167,117.105186 
M359.992706,91.078056 
	C359.992706,91.078056 359.723938,91.243950 359.862000,90.426453 
	C359.913818,86.962868 359.965607,83.499290 360.282379,79.770508 
	C360.282379,79.770508 360.655884,79.737976 361.490631,79.974304 
	C365.117767,79.825424 368.744904,79.676544 372.395081,79.611778 
	C372.395081,79.611778 372.480011,79.631676 372.259430,80.300552 
	C373.103210,80.897652 373.946960,81.494751 375.336182,82.377098 
	C375.849213,82.714775 376.362274,83.052460 377.034180,84.087601 
	C377.869293,84.225182 378.704437,84.362762 380.017120,84.402618 
	C380.351990,84.393585 380.662750,84.475731 381.259460,85.211143 
	C382.188507,84.846039 383.117554,84.480942 384.264740,83.809708 
	C384.264740,83.809708 384.631348,83.726837 385.399384,83.870422 
	C390.725220,80.983124 391.831665,76.174339 387.860474,71.682289 
	C387.860474,71.682289 387.781036,71.305321 387.921753,70.569084 
	C386.085480,69.234238 384.249207,67.899391 382.077148,66.508095 
	C382.077148,66.508095 381.837830,66.265923 381.769073,65.549667 
	C377.997162,64.202759 374.225281,62.855839 369.760651,61.575634 
	C368.847168,61.426575 367.933685,61.277512 366.634125,60.604595 
	C364.751434,60.774078 362.868744,60.943565 360.296661,61.279903 
	C359.352936,61.318596 358.409210,61.357288 356.687317,61.065517 
	C352.030640,61.749496 347.737396,62.952000 346.191559,68.215164 
	C346.191559,68.215164 346.311157,68.359772 345.604492,68.236160 
	C343.544556,72.062363 340.622803,75.676659 339.618195,79.762367 
	C337.936707,86.600624 338.978424,93.393265 344.199585,99.258438 
	C344.199585,99.258438 344.284241,99.623947 344.088074,100.336273 
	C346.479370,102.462395 348.870667,104.588524 351.049530,106.980385 
	C351.049530,106.980385 351.281677,106.731514 351.172760,107.434921 
	C356.983917,110.397949 362.795044,113.360977 369.166199,116.531906 
	C369.768860,117.036583 370.371490,117.541260 370.976410,118.749229 
	C372.651642,120.832512 374.326874,122.915787 376.208527,125.723953 
	C376.199371,126.473236 376.190216,127.222527 375.589630,128.333893 
	C373.346619,131.065002 371.103607,133.796112 368.095886,136.755112 
	C366.780762,136.654587 365.465637,136.554062 363.950775,135.813797 
	C360.897247,134.612106 357.843719,133.410416 355.000000,132.000610 
	C355.000000,132.000610 354.788391,132.206589 354.897888,131.436813 
	C354.490143,130.017593 354.505280,128.166672 353.587769,127.267776 
	C351.593781,125.314278 349.330963,123.142395 346.785614,122.393272 
	C344.569580,121.741081 340.965851,120.787453 339.995667,124.995667 
	C339.995667,124.995667 339.926819,124.950150 339.259094,124.957024 
	C338.802979,126.299866 338.346863,127.642715 337.884460,129.850067 
	C337.851318,131.578232 337.818176,133.306412 337.295715,135.475693 
	C339.192383,138.653839 341.089050,141.831985 343.000000,145.000000 
	C343.000000,145.000000 342.988678,145.014328 342.895569,145.753448 
	C344.813293,150.648666 348.974670,151.445770 354.006775,151.496475 
	C354.327942,151.582718 354.649139,151.668961 355.203674,152.431061 
	C356.799469,152.640762 358.395264,152.850464 360.903137,153.042862 
	C363.945068,153.087311 366.986969,153.131760 370.494049,153.713699 
	C371.954468,153.075775 373.414886,152.437851 375.366241,151.507065 
	C375.910400,151.335648 376.454559,151.164230 377.324554,151.551697 
	C379.199280,150.339554 381.074005,149.127411 383.250183,147.479568 
	C383.698914,147.215698 384.147644,146.951843 385.296600,146.893005 
	C386.545197,145.615829 387.793762,144.338638 389.005585,142.998856 
	C389.005585,142.998856 389.062775,143.043732 389.775452,143.027237 
	C390.948334,141.275864 392.601715,139.674225 393.202972,137.744736 
	C394.930450,132.201294 397.049591,126.525833 393.101074,120.282265 
	C393.088654,119.851326 393.076233,119.420387 393.581268,118.554993 
	C392.536041,114.311211 391.804779,109.851303 386.622375,108.370377 
	C386.622375,108.370377 386.543030,108.352142 386.796356,107.674904 
	C382.326813,105.012611 377.857269,102.350319 372.730652,99.516258 
	C371.199371,98.529243 369.668060,97.542229 367.943726,95.882271 
	C366.765839,95.466469 365.587982,95.050659 363.873383,94.569962 
	C363.593018,94.355377 363.312683,94.140793 363.020020,93.228615 
	C361.926361,92.574638 360.832733,91.920662 359.992706,91.078056 
M158.115326,147.251099 
	C158.193039,147.300781 158.270737,147.350464 158.348450,147.400146 
	C158.228256,147.269806 158.108047,147.139481 157.933289,146.090759 
	C157.820419,145.489578 157.707535,144.888397 157.684998,143.935196 
	C157.832001,143.708832 158.040115,143.604218 159.106934,143.846542 
	C163.189438,142.835205 164.208176,139.509613 164.999115,136.000000 
	C164.999115,136.000000 165.024445,136.014221 165.730255,136.001678 
	C168.169235,131.922546 170.908920,127.985069 172.924484,123.706467 
	C173.984055,121.457207 173.776855,118.611198 174.024399,115.283806 
	C174.153229,114.539375 174.282074,113.794945 175.149597,112.776894 
	C175.239853,111.249565 175.330109,109.722244 175.219177,107.675461 
	C175.346390,107.152084 175.473602,106.628716 176.287231,105.678986 
	C177.223328,102.439522 177.945801,99.245224 174.175446,96.187943 
	C174.115265,95.125778 174.055084,94.063622 174.552612,92.679306 
	C176.261948,90.267159 176.040985,88.813583 172.337845,88.310997 
	C172.300034,87.852142 172.262222,87.393288 172.743195,86.434807 
	C170.273422,81.177681 167.870224,75.886948 165.254379,70.703545 
	C164.904892,70.011009 163.478958,69.861717 162.803391,69.248581 
	C162.803391,69.248581 162.517776,69.412682 162.775146,68.648247 
	C161.667892,67.851624 160.560654,67.055008 158.926987,66.184196 
	C158.621155,65.781944 158.315308,65.379700 158.011368,64.287514 
	C156.337692,63.536644 154.664017,62.785778 152.296066,62.011826 
	C151.202759,61.638615 150.109451,61.265404 148.873077,60.152431 
	C143.754486,59.208370 138.660385,57.819702 133.505432,57.535744 
	C131.398575,57.419697 129.160004,59.694839 126.604439,61.307026 
	C125.928604,61.632542 125.252777,61.958057 123.741837,62.119514 
	C122.675652,63.345200 121.609474,64.570885 120.445305,65.976662 
	C120.445305,65.976662 120.266891,66.077690 119.526176,66.038452 
	C113.590828,69.224907 112.747665,75.711731 110.085449,80.957405 
	C109.060341,82.977318 109.257492,85.617538 109.018311,88.649231 
	C108.902496,89.085190 108.786682,89.521156 107.996765,90.119789 
	C107.691223,92.419838 107.385681,94.719894 107.237450,97.760849 
	C107.124802,98.502235 107.012146,99.243622 106.120720,100.171234 
	C105.748772,103.819595 105.180641,107.464211 105.110878,111.118340 
	C105.086327,112.404129 106.282913,113.713219 107.154457,115.648872 
	C107.118286,116.095078 107.082115,116.541275 106.565666,117.321472 
	C106.813622,117.907364 107.061577,118.493256 107.611900,119.394554 
	C107.726494,119.693169 107.692612,119.973831 107.176697,120.967255 
	C107.653946,121.995010 108.131203,123.022766 108.927963,124.661713 
	C108.926605,125.114975 108.925247,125.568245 108.399567,126.409874 
	C109.009628,127.635078 109.619682,128.860275 110.587700,130.770126 
	C110.672379,131.528717 110.757065,132.287292 110.301773,133.497681 
	C110.491058,136.220856 110.680351,138.944016 110.891068,141.975494 
	C112.015877,141.618240 113.039513,141.293137 114.550224,141.160706 
	C114.777824,141.608490 115.005424,142.056290 115.064957,143.337067 
	C114.982986,146.369156 116.624947,147.277222 119.773056,146.821365 
	C119.773056,146.821365 119.969101,147.176422 119.935219,147.922729 
	C121.993103,151.738495 130.314285,154.626602 135.712418,152.892441 
	C136.486862,152.970367 137.261322,153.048309 138.529480,153.693649 
	C140.343384,153.080353 142.157303,152.467072 144.377899,151.582428 
	C144.377899,151.582428 144.859741,151.497620 144.859741,151.497620 
	C144.859741,151.497620 145.330139,151.632126 146.154129,151.855423 
	C148.518234,151.593353 150.882339,151.331284 153.246445,151.069229 
	C153.081696,150.872101 152.916931,150.674957 152.752167,150.477829 
	C154.504440,149.314499 156.256714,148.151154 158.115326,147.251099 
M237.906937,66.227272 
	C237.603622,65.820526 237.300308,65.413780 236.961487,64.278839 
	C234.757050,63.302364 232.552612,62.325886 229.743927,61.435791 
	C229.167435,61.258617 228.590958,61.081440 227.867416,60.150322 
	C222.569656,59.111717 217.283997,57.997288 211.956024,57.148258 
	C211.404938,57.060440 210.602081,58.552517 209.302124,59.624130 
	C208.844742,59.650257 208.387375,59.676380 207.637436,59.158424 
	C204.397934,57.126640 204.184250,59.432396 203.417297,62.116100 
	C201.369095,64.121567 199.320908,66.127037 196.459732,68.190826 
	C196.168182,69.060532 195.876633,69.930244 195.515121,70.985352 
	C195.515121,70.985352 195.373230,71.123657 194.580185,71.033836 
	C189.712219,70.772041 192.506149,73.890327 192.550339,76.240952 
	C192.506378,76.581223 192.335480,76.836494 191.429626,77.023987 
	C191.297546,77.685768 191.165466,78.347549 191.076279,79.693359 
	C190.905670,80.109390 190.735062,80.525421 189.888168,80.941895 
	C186.072449,83.036324 186.592422,86.336372 187.626709,90.137650 
	C187.665878,90.466530 187.551804,90.728645 186.656296,91.279381 
	C186.401871,93.176857 186.147446,95.074341 186.043900,97.852287 
	C185.861160,100.215446 185.678421,102.578598 184.871765,105.137894 
	C185.059677,106.780235 185.247604,108.422585 185.708939,110.899605 
	C185.763718,112.945068 185.818512,114.990540 185.332596,117.461967 
	C185.978729,119.333969 186.624863,121.205978 187.629318,123.692314 
	C187.640030,124.159454 187.650742,124.626587 187.180450,125.628006 
	C187.923264,128.907364 186.589798,132.927979 190.900757,135.642258 
	C190.948532,136.090393 190.996292,136.538528 190.514969,137.267670 
	C191.019043,137.843536 191.523117,138.419403 192.399078,139.296188 
	C192.593231,139.581696 192.637787,139.888901 192.232254,140.969727 
	C194.283188,142.920059 196.334122,144.870377 198.921539,146.896484 
	C199.277985,147.281601 199.634430,147.666702 200.029053,148.794617 
	C202.257645,149.722610 204.486237,150.650604 207.309052,151.486496 
	C207.871170,151.667038 208.433304,151.847595 209.144562,152.827072 
	C213.039612,153.210037 216.929932,153.701981 220.834229,153.870804 
	C221.500504,153.899612 222.226547,152.545929 223.386047,151.484711 
	C223.947937,151.406189 224.509842,151.327667 225.523575,151.720367 
	C231.726074,150.916122 236.122406,147.045120 240.030975,142.690872 
	C241.930786,140.574448 243.034683,137.743576 244.536926,135.044617 
	C244.536926,135.044617 244.670654,134.902359 245.453964,134.901093 
	C246.205307,133.404816 246.956665,131.908524 247.646866,129.894012 
	C247.823151,129.604706 247.999435,129.315399 248.869202,128.951462 
	C251.439606,125.856873 254.010818,122.762566 252.432251,117.852982 
	C252.425552,117.530640 252.544861,117.264931 253.479935,116.715378 
	C253.730804,114.163025 253.981689,111.610680 254.084763,108.154976 
	C254.133636,105.415161 254.182510,102.675346 254.758316,99.423523 
	C254.109711,97.267166 253.461105,95.110802 252.554398,92.573723 
	C252.424377,92.266289 252.445129,91.969383 252.884125,90.834305 
	C251.181213,86.906517 249.478302,82.978737 247.610641,78.883972 
	C247.610641,78.883972 247.644104,78.651810 247.875748,77.879379 
	C245.832565,73.941467 243.871979,69.955139 241.631241,66.133049 
	C241.379578,65.703781 239.542450,66.204025 237.906937,66.227272 
M259.458923,191.716660 
	C259.718445,191.989410 259.977966,192.262177 260.237457,192.534943 
	C260.350220,192.427231 260.567108,192.231949 260.560760,192.224442 
	C260.318787,191.936844 260.056335,191.666458 259.458923,191.716660 
M276.715149,183.173492 
	C276.610016,183.024338 276.504883,182.875198 276.399750,182.726044 
	C276.419495,182.933472 276.439270,183.140915 276.715149,183.173492 
M97.478050,156.350571 
	C97.529686,156.150269 97.581314,155.949951 97.632935,155.749649 
	C97.508438,155.877472 97.383942,156.005310 97.478050,156.350571 
M60.483757,63.572517 
	C60.483757,63.572517 60.429523,63.475510 60.483757,63.572517 
z"/>
<path fill="#F3F3F3" opacity="1.000000" stroke="none" 
	d="
M175.600830,106.105339 
	C175.473602,106.628716 175.346390,107.152084 175.034073,108.173126 
	C174.702942,110.130699 174.556915,111.590607 174.410889,113.050514 
	C174.282074,113.794945 174.153229,114.539375 173.827255,115.914658 
	C170.761551,123.035088 167.892990,129.524658 165.024445,136.014221 
	C165.024445,136.014221 164.999115,136.000000 164.680450,136.102142 
	C162.344315,138.676651 160.326843,141.149002 158.309372,143.621353 
	C158.040115,143.604218 157.832001,143.708832 157.286514,144.189728 
	C153.035400,146.840210 149.182770,149.236176 145.330139,151.632126 
	C145.330139,151.632126 144.859741,151.497620 144.859741,151.497620 
	C144.859741,151.497620 144.377899,151.582428 143.787140,151.622742 
	C141.476181,152.150772 139.755966,152.638489 138.035767,153.126221 
	C137.261322,153.048309 136.486862,152.970367 135.050629,152.784988 
	C129.582275,150.843826 124.775688,149.010117 119.969101,147.176422 
	C119.969101,147.176422 119.773056,146.821365 119.466797,146.503510 
	C117.851372,144.958466 116.542198,143.731262 115.233032,142.504074 
	C115.005424,142.056290 114.777824,141.608490 114.305786,140.691940 
	C112.988152,137.830750 111.914955,135.438309 110.841751,133.045883 
	C110.757065,132.287292 110.672379,131.528717 110.532135,130.125122 
	C109.959015,128.327255 109.441452,127.174385 108.923889,126.021507 
	C108.925247,125.568245 108.926605,125.114975 108.874260,124.017082 
	C108.383781,122.327148 107.947014,121.281845 107.510246,120.236542 
	C107.692612,119.973831 107.726494,119.693169 107.615326,119.059311 
	C107.427818,118.145203 107.236885,117.566338 107.045952,116.987480 
	C107.082115,116.541275 107.118286,116.095078 107.158905,114.876160 
	C107.075401,109.397308 106.987450,104.691154 106.899498,99.985008 
	C107.012146,99.243622 107.124802,98.502235 107.354492,97.091553 
	C107.871315,94.267212 108.271088,92.112160 108.670868,89.957115 
	C108.786682,89.521156 108.902496,89.085190 109.205170,88.059372 
	C113.016975,80.338905 116.641937,73.208298 120.266891,66.077690 
	C120.266891,66.077690 120.445305,65.976662 120.801605,65.743477 
	C122.297585,64.434715 123.437263,63.359142 124.576942,62.283569 
	C125.252777,61.958057 125.928604,61.632542 127.211014,61.075409 
	C130.688599,60.481323 133.565369,59.785667 136.429245,59.835190 
	C140.629700,59.907822 144.820969,60.513588 149.016144,60.892189 
	C150.109451,61.265404 151.202759,61.638615 152.779602,62.325798 
	C154.845245,63.419003 156.427353,64.198227 158.009476,64.977455 
	C158.315308,65.379700 158.621155,65.781944 159.279175,66.535553 
	C160.593506,67.728828 161.555649,68.570755 162.517776,69.412682 
	C162.517776,69.412682 162.803391,69.248581 162.707138,69.698044 
	C165.815384,75.743149 169.019897,81.338791 172.224411,86.934433 
	C172.262222,87.393288 172.300034,87.852142 172.379089,88.920189 
	C172.945175,90.686745 173.470032,91.844101 173.994904,93.001457 
	C174.055084,94.063622 174.115265,95.125778 174.203735,96.950989 
	C174.688309,100.511131 175.144562,103.308235 175.600830,106.105339 
M156.200455,106.392319 
	C156.276825,104.561974 156.425995,102.731262 156.416748,100.901344 
	C156.380203,93.668816 152.893600,88.060036 148.574554,82.499771 
	C145.408112,78.423347 141.518723,80.834946 138.071320,79.894867 
	C133.038605,78.522484 130.164841,81.504410 128.152466,85.446091 
	C121.343597,98.782822 122.445717,112.195900 128.870682,125.172745 
	C134.155899,135.847610 145.100708,136.233124 150.690475,125.726028 
	C153.630081,120.200439 154.369324,113.504280 156.200455,106.392319 
z"/>
<path fill="#F5F5F5" opacity="1.000000" stroke="none" 
	d="
M244.670654,134.902359 
	C244.670654,134.902359 244.536926,135.044617 244.228165,135.323669 
	C238.967438,142.421036 232.330978,147.210205 225.071732,151.249146 
	C224.509842,151.327667 223.947937,151.406189 222.694321,151.595520 
	C217.666870,151.813614 213.331146,151.920883 208.995422,152.028137 
	C208.433304,151.847595 207.871170,151.667038 206.815643,151.241425 
	C204.211792,150.014847 202.101334,149.033325 199.990875,148.051819 
	C199.634430,147.666702 199.277985,147.281601 198.527740,146.539459 
	C196.266876,144.194244 194.399811,142.206024 192.532745,140.217804 
	C192.637787,139.888901 192.593231,139.581696 192.287033,138.827240 
	C191.798019,137.901062 191.421036,137.443863 191.044052,136.986664 
	C190.996292,136.538528 190.948532,136.090393 190.802261,134.976776 
	C189.689667,131.238770 188.675568,128.166245 187.661469,125.093727 
	C187.650742,124.626587 187.640030,124.159454 187.569244,123.041855 
	C186.963867,120.606262 186.418579,118.821129 185.873291,117.036003 
	C185.818512,114.990540 185.763718,112.945068 185.712463,110.071503 
	C185.642563,107.809517 185.569122,106.375633 185.495682,104.941757 
	C185.678421,102.578598 185.861160,100.215446 186.238373,97.220352 
	C186.716721,94.700279 187.000595,92.812126 187.284485,90.923981 
	C187.551804,90.728645 187.665878,90.466530 187.811630,89.692535 
	C188.852524,86.478767 189.708481,83.710106 190.564453,80.941452 
	C190.735062,80.525421 190.905670,80.109390 191.350891,79.232208 
	C191.762894,78.182961 191.900269,77.594856 192.037643,77.006752 
	C192.335480,76.836494 192.506378,76.581223 192.829163,75.834930 
	C193.863083,73.993828 194.618164,72.558746 195.373230,71.123657 
	C195.373230,71.123657 195.515121,70.985352 195.823578,70.710175 
	C196.512268,69.667496 196.892487,68.900002 197.272720,68.132507 
	C199.320908,66.127037 201.369095,64.121567 204.020462,61.980782 
	C205.725754,61.131142 206.827881,60.416824 207.929993,59.702507 
	C208.387375,59.676380 208.844742,59.650257 210.048920,59.584908 
	C216.535309,59.998547 222.274887,60.451405 228.014465,60.904263 
	C228.590958,61.081440 229.167435,61.258617 230.227158,61.692760 
	C232.805923,62.968830 234.901459,63.987934 236.996994,65.007034 
	C237.300308,65.413780 237.603622,65.820526 238.307922,66.575165 
	C241.687317,70.832634 244.665710,74.742226 247.644104,78.651810 
	C247.644104,78.651810 247.610641,78.883972 247.641876,79.355171 
	C249.320969,83.778587 250.968811,87.730804 252.616653,91.683014 
	C252.445129,91.969383 252.424377,92.266289 252.559937,93.062119 
	C253.120773,95.678848 253.676086,97.807190 254.231384,99.935532 
	C254.182510,102.675346 254.133636,105.415161 253.905167,108.864136 
	C253.413773,112.067482 253.101974,114.561661 252.790192,117.055840 
	C252.544861,117.264931 252.425552,117.530640 252.198242,118.274208 
	C250.701401,122.138985 249.438538,125.582535 248.175705,129.026093 
	C247.999435,129.315399 247.823151,129.604706 247.373688,130.325134 
	C246.290573,132.138290 245.480621,133.520325 244.670654,134.902359 
M235.430023,106.610382 
	C235.402100,103.281075 235.374176,99.951767 235.754120,96.030220 
	C235.319107,95.313660 234.884094,94.597107 234.186707,93.195732 
	C232.240631,89.981621 230.466583,86.645020 228.293304,83.592682 
	C226.595566,81.208237 224.580200,78.816666 220.667770,79.398682 
	C219.785263,79.556946 218.902756,79.715210 217.162125,79.881760 
	C212.945435,78.685455 210.172348,80.897346 207.059265,83.994888 
	C206.773911,84.765167 206.488571,85.535439 206.105469,86.871597 
	C205.928177,87.209015 205.750870,87.546425 204.917496,88.069763 
	C204.729507,88.868988 204.541519,89.668205 204.304626,91.101624 
	C204.133774,91.712242 203.962921,92.322853 203.169403,92.998940 
	C203.069153,93.991913 202.968918,94.984886 202.968094,96.880493 
	C202.899170,99.603020 202.830246,102.325539 202.221527,105.609505 
	C202.724396,108.433777 203.227264,111.258049 203.972397,114.795441 
	C204.101547,116.042114 204.230698,117.288780 204.092911,119.168839 
	C204.575302,119.820305 205.057693,120.471771 205.821960,121.794868 
	C207.048279,123.913704 208.091141,126.167572 209.533585,128.127319 
	C214.930237,135.459335 221.617966,135.059265 229.882614,126.988472 
	C230.200790,126.243500 230.518967,125.498535 230.890717,124.067276 
	C231.609924,122.384270 232.329132,120.701263 233.680237,118.978409 
	C233.826218,117.991776 233.972198,117.005142 234.095657,115.284332 
	C234.239914,114.565941 234.384155,113.847549 235.224915,112.813599 
	C235.325897,111.022949 235.426895,109.232307 235.430023,106.610382 
z"/>
<path fill="#EFEFEF" opacity="1.000000" stroke="none" 
	d="
M248.344925,194.646011 
	C248.344925,194.646011 248.091003,194.688278 247.689285,194.821594 
	C245.660004,196.204727 244.032455,197.454529 242.404907,198.704346 
	C242.404892,198.704330 242.119736,198.711838 241.709137,198.820862 
	C240.039429,199.877930 238.780334,200.825974 237.521240,201.773987 
	C237.521225,201.773987 237.183441,201.711060 236.727203,201.818787 
	C233.325912,203.525375 230.380844,205.124207 227.435776,206.723053 
	C227.435776,206.723053 227.147537,206.685074 226.686646,206.777359 
	C220.899094,209.086746 215.572464,211.303848 210.245834,213.520935 
	C210.245834,213.520950 209.851852,213.351562 209.851852,213.351562 
	C209.851852,213.351562 209.425430,213.397125 208.963593,213.360458 
	C204.738007,214.371643 200.974243,215.419510 197.210495,216.467377 
	C196.331573,216.528656 195.452652,216.589905 193.892792,216.749664 
	C191.486115,217.271713 189.760391,217.695297 188.034653,218.118866 
	C185.335007,218.249954 182.635376,218.381027 179.059204,218.476593 
	C173.764755,218.546295 169.346832,218.651474 164.928925,218.756653 
	C163.894531,218.634399 162.860123,218.512131 161.085052,218.300781 
	C158.232178,217.793289 156.119995,217.374847 154.007812,216.956390 
	C152.572723,216.641510 151.137650,216.326614 149.122803,215.778503 
	C144.196198,213.950821 139.531097,212.909744 135.575485,210.634949 
	C129.311203,207.032471 123.521812,202.604172 117.531487,198.525299 
	C117.531487,198.525299 117.366295,198.648071 117.354958,198.233734 
	C115.235413,195.536926 113.127197,193.254425 111.018982,190.971924 
	C111.018990,190.971924 110.998428,190.998962 111.017456,190.630920 
	C107.785599,184.083389 104.534714,177.903885 101.252609,171.665024 
	C100.818260,171.826859 100.336258,171.945663 99.913940,172.174561 
	C98.258492,173.071823 96.621864,174.003830 94.978249,174.922943 
	C94.935440,172.926056 94.875740,170.929306 94.859566,168.932205 
	C94.854362,168.289871 94.963890,167.646591 95.020927,167.003754 
	C95.020927,167.003754 95.292450,166.841812 95.585800,166.532303 
	C98.786652,164.096954 101.534721,161.666992 104.689682,160.013245 
	C105.767570,159.448242 108.075256,160.534271 109.401077,161.464508 
	C109.966011,161.860916 109.972618,164.313004 109.344322,164.938950 
	C106.060196,168.210815 107.963287,170.495285 110.429497,172.819931 
	C110.429497,172.819931 110.487770,172.988876 110.523605,173.423782 
	C119.743240,186.821899 132.609375,194.263824 147.642502,198.274887 
	C161.396805,201.944748 175.454773,201.379028 189.276199,199.410583 
	C200.198044,197.855118 210.915207,194.647018 220.329361,188.336960 
	C220.329361,188.336960 220.095688,188.016678 220.553986,188.205719 
	C222.559357,187.379013 224.106430,186.363281 225.653503,185.347565 
	C225.653519,185.347565 225.899841,185.325943 226.322815,185.239044 
	C231.697174,181.222260 236.648560,177.292374 241.599945,173.362518 
	C241.857254,173.272079 242.070007,173.119522 242.651672,172.621063 
	C245.754776,169.705505 248.399445,167.025711 251.143768,164.452179 
	C256.445343,159.480576 256.453003,159.386719 250.017838,155.959167 
	C249.998459,155.778732 249.979080,155.598282 249.967712,154.897797 
	C249.996063,153.592514 250.016434,152.807312 250.036789,152.022095 
	C250.036789,152.022095 249.999130,152.000229 250.377365,151.967178 
	C254.501907,152.631882 258.248199,153.329651 261.994507,154.027420 
	C261.994507,154.027420 262.103882,154.283310 262.366180,154.626083 
	C266.417267,159.979797 270.206055,164.990738 273.994812,170.001678 
	C274.056305,172.384872 274.117798,174.768051 273.820862,177.682678 
	C271.413635,178.498993 269.355774,178.732346 267.319519,179.089050 
	C266.194641,179.286087 265.105988,179.689941 264.001007,180.000565 
	C263.705475,180.156586 263.409973,180.312592 262.718750,180.788269 
	C259.086700,184.599442 255.850311,188.090912 252.613922,191.582382 
	C252.724945,191.725861 252.835968,191.869324 252.431824,191.798950 
	C250.726074,192.605408 249.535507,193.625717 248.344925,194.646011 
z"/>
<path fill="#F2F2F2" opacity="1.000000" stroke="none" 
	d="
M384.631348,83.726837 
	C384.631348,83.726837 384.264740,83.809708 383.840057,83.863106 
	C382.593384,84.160683 381.771393,84.404861 380.949402,84.649040 
	C380.662750,84.475731 380.351990,84.393585 379.636963,84.163132 
	C378.462982,83.745804 377.669128,83.567970 376.875305,83.390137 
	C376.362274,83.052460 375.849213,82.714775 375.057739,81.928040 
	C374.012878,80.863220 373.246460,80.247444 372.480011,79.631668 
	C372.480011,79.631676 372.395081,79.611778 372.291443,79.214020 
	C368.031464,75.215462 364.312500,77.086784 360.655884,79.737976 
	C360.655884,79.737976 360.282379,79.770508 359.784485,79.955139 
	C356.192291,83.968788 356.209991,87.675224 359.723938,91.243950 
	C359.723938,91.243950 359.992706,91.078056 359.888794,91.503998 
	C360.867340,92.595360 361.949829,93.260780 363.032318,93.926208 
	C363.312683,94.140793 363.593018,94.355377 364.323486,94.867767 
	C365.894684,95.628784 367.015717,96.091995 368.136780,96.555206 
	C369.668060,97.542229 371.199371,98.529243 373.218842,99.895370 
	C377.985687,102.967041 382.264374,105.659592 386.543030,108.352142 
	C386.543030,108.352142 386.622375,108.370377 386.673218,108.748955 
	C388.837311,112.414841 390.950562,115.702148 393.063782,118.989456 
	C393.076233,119.420387 393.088654,119.851326 393.095581,121.051315 
	C394.754700,129.465439 392.327637,136.334076 389.062775,143.043732 
	C389.062775,143.043732 389.005585,142.998856 388.692169,143.029663 
	C387.117981,144.269638 385.857178,145.478821 384.596375,146.687988 
	C384.147644,146.951843 383.698914,147.215698 382.743439,147.687256 
	C380.490723,148.927551 378.744720,149.960175 376.998718,150.992798 
	C376.454559,151.164230 375.910400,151.335648 374.750488,151.579056 
	C372.766144,152.159439 371.397522,152.667816 370.028900,153.176208 
	C366.986969,153.131760 363.945068,153.087311 360.273743,152.788101 
	C358.086334,152.273956 356.528320,152.014572 354.970306,151.755188 
	C354.649139,151.668961 354.327942,151.582718 353.602173,151.211761 
	C349.794617,148.956131 346.391632,146.985229 342.988678,145.014328 
	C342.988678,145.014328 343.000000,145.000000 342.994080,144.643478 
	C341.253754,141.202835 339.519379,138.118713 337.785004,135.034576 
	C337.818176,133.306412 337.851318,131.578232 338.142426,129.208099 
	C338.909210,127.360802 339.418030,126.155479 339.926819,124.950150 
	C339.926819,124.950150 339.995667,124.995667 340.383698,124.908081 
	C346.365753,122.223473 349.232605,123.231934 351.881256,128.483627 
	C352.576721,129.862595 353.804871,130.972900 354.788391,132.206589 
	C354.788391,132.206589 355.000000,132.000610 354.972534,132.445129 
	C358.013519,134.077591 361.082031,135.265564 364.150513,136.453537 
	C365.465637,136.554062 366.780762,136.654587 368.816345,136.762878 
	C373.516144,135.170151 376.627625,132.914368 376.181061,127.971809 
	C376.190216,127.222527 376.199371,126.473236 376.198090,125.004227 
	C374.449799,122.204979 372.711975,120.125465 370.974152,118.045944 
	C370.371490,117.541260 369.768860,117.036583 368.717529,116.139450 
	C362.606445,112.741837 356.944061,109.736679 351.281677,106.731514 
	C351.281677,106.731514 351.049530,106.980385 351.086670,106.521561 
	C348.843964,103.916473 346.564117,101.770210 344.284241,99.623947 
	C344.284241,99.623947 344.199585,99.258438 344.028992,98.771133 
	C339.223785,87.862244 339.751190,77.863770 346.311157,68.359772 
	C346.311157,68.359772 346.191559,68.215164 346.615234,68.215279 
	C350.514435,65.942261 353.989960,63.669121 357.465485,61.395985 
	C358.409210,61.357288 359.352936,61.318596 360.953552,61.333832 
	C363.413727,61.301323 365.216949,61.214890 367.020203,61.128452 
	C367.933685,61.277512 368.847168,61.426575 370.310120,61.837303 
	C374.518982,63.487957 378.178406,64.876938 381.837830,66.265923 
	C381.837830,66.265923 382.077148,66.508095 382.344360,66.853401 
	C384.334747,68.567574 386.057892,69.936447 387.781036,71.305313 
	C387.781036,71.305321 387.860474,71.682289 387.963257,72.261375 
	C389.368164,77.241295 387.954987,80.785454 384.631348,83.726837 
z"/>
<path fill="#FEFEFE" opacity="1.000000" stroke="none" 
	d="
M282.999847,61.001030 
	C284.065918,61.143871 285.132019,61.286713 286.600281,61.936546 
	C288.679535,62.600700 290.356598,62.757858 292.405670,62.848816 
	C293.509155,62.945847 294.240631,63.109077 295.025635,63.579773 
	C296.049500,63.935677 297.019806,63.984123 298.336731,63.978477 
	C299.787231,64.298027 300.891113,64.671677 302.086670,65.442245 
	C303.394836,66.042389 304.611328,66.245613 306.141327,66.403839 
	C307.300995,66.912590 308.147156,67.466347 308.847107,68.324089 
	C309.242981,70.170006 309.321594,72.381020 310.409698,73.134834 
	C314.512878,75.977371 318.944397,78.346016 323.520844,81.050087 
	C324.095215,82.171783 324.401703,83.135483 324.502686,84.554733 
	C324.357513,89.723038 324.387024,94.436852 324.548431,99.146126 
	C324.559082,99.456879 325.575592,99.733154 326.192444,100.359924 
	C326.124939,101.123734 325.989258,101.553078 325.482666,101.988541 
	C323.330322,104.845802 321.548859,107.696938 319.571472,110.861649 
	C318.499725,110.448303 317.107391,109.911316 316.685028,109.748421 
	C314.981079,113.150009 313.496185,116.114372 311.759735,119.365738 
	C311.000885,120.187515 310.493591,120.722267 309.986298,121.257027 
	C309.487640,121.329063 308.988983,121.401093 308.133057,121.539307 
	C307.473175,121.686615 307.175507,121.671173 306.469482,121.409737 
	C303.305939,121.260307 300.555786,121.260307 297.290955,121.260307 
	C297.220215,121.841461 297.049286,123.245163 296.878387,124.648872 
	C296.878387,124.648872 297.019928,124.897293 296.671844,124.931122 
	C295.545776,124.960258 294.767761,124.955559 293.708923,124.651009 
	C290.387299,124.229019 287.342407,123.986870 284.309509,124.091927 
	C283.742615,124.111549 283.223938,125.522614 282.654785,126.804253 
	C282.484650,134.223206 282.342834,141.129440 281.848938,148.050751 
	C280.989105,148.979568 280.481354,149.893295 279.845306,151.027328 
	C279.396362,151.316589 279.075684,151.385529 278.359802,151.325073 
	C276.797333,150.938705 275.630066,150.681732 273.554657,150.224838 
	C275.561554,149.222183 276.629608,148.688568 277.697662,148.154968 
	C277.622925,147.666519 277.548187,147.178085 277.473480,146.689636 
	C276.018707,146.783615 274.428070,146.531296 273.135468,147.038498 
	C269.683594,148.392975 267.997833,147.366028 268.057343,143.727463 
	C268.121765,139.788361 268.584503,135.844940 268.440735,131.919266 
	C268.391693,130.579575 267.031311,129.287888 266.270081,127.974258 
	C266.181641,127.817787 266.093201,127.661331 265.990692,126.851074 
	C265.972870,124.467796 265.969147,122.738342 266.279419,120.729027 
	C266.357880,114.288712 266.122345,108.128242 265.787445,101.525650 
	C265.699921,98.376915 265.711761,95.670311 265.723572,92.963707 
	C265.836609,91.905762 265.949646,90.847824 266.560638,89.299316 
	C267.715424,84.580009 268.826141,80.358154 268.890625,76.120392 
	C268.945831,72.492462 267.802124,68.846306 267.542053,65.089081 
	C270.674774,64.504791 273.482300,64.156181 276.214508,63.495876 
	C276.934265,63.321922 277.421204,62.184605 278.424011,61.389183 
	C280.221924,61.192806 281.610870,61.096920 282.999847,61.001030 
M297.491791,108.665245 
	C300.819092,107.793060 305.020264,108.904953 306.852295,104.133728 
	C307.016998,103.842537 307.261078,103.739616 308.332275,103.894943 
	C313.517944,99.406624 313.940399,96.159866 309.440094,92.302406 
	C309.408905,91.832367 309.377747,91.362320 309.807281,90.327995 
	C310.025269,84.150917 308.823608,82.820969 303.548798,83.924080 
	C303.348206,83.658257 303.147644,83.392441 302.932281,82.381798 
	C299.520508,78.352409 290.873016,76.137932 285.169464,78.274849 
	C284.389801,79.546822 283.079987,80.759766 282.930542,82.101929 
	C282.493896,86.023407 282.520203,89.996437 281.730225,94.230537 
	C281.157227,97.552094 280.482452,100.860283 280.044281,104.199532 
	C279.708527,106.758133 279.875275,109.475601 283.188660,109.819748 
	C286.855682,110.200623 291.048706,113.606071 294.752747,108.138611 
	C295.514099,108.133194 296.275421,108.127777 297.491791,108.665245 
M309.195038,110.593803 
	C309.199341,110.208954 309.203644,109.824097 309.207947,109.439240 
	C309.048309,109.437477 308.749908,109.424980 308.749084,109.435509 
	C308.719482,109.818497 308.717529,110.203621 309.195038,110.593803 
M322.515656,96.419296 
	C322.515656,96.419296 322.573090,96.519859 322.515656,96.419296 
z"/>
<path fill="#F4F4F4" opacity="1.000000" stroke="none" 
	d="
M62.119656,110.967117 
	C62.135010,114.000397 62.150368,117.033669 62.134224,120.956711 
	C62.207512,124.994278 62.083073,128.175293 62.532066,131.273224 
	C62.706982,132.480087 64.173691,133.499741 65.051994,134.604660 
	C65.486702,134.745758 65.921410,134.886856 66.913452,135.159790 
	C68.637108,135.157959 69.803436,135.024292 70.969757,134.890625 
	C73.543411,134.771133 76.117065,134.651627 79.386559,134.623077 
	C80.786583,134.281906 81.490768,133.849762 82.194962,133.417618 
	C82.194954,133.417618 82.259720,133.179810 82.473038,133.228851 
	C83.485939,132.952744 84.285515,132.627579 85.085091,132.302414 
	C86.407341,132.264465 87.729599,132.226532 89.535568,132.623947 
	C90.842583,133.116745 91.665878,133.174194 92.489174,133.231659 
	C93.538071,134.311722 94.586967,135.391785 95.740616,137.055969 
	C95.851212,138.095276 95.857040,138.550430 95.634178,139.120850 
	C95.523888,139.815079 95.642288,140.394089 95.726471,141.326538 
	C95.634438,142.379303 95.576637,143.078598 95.518845,143.777893 
	C93.551712,145.252747 91.584587,146.727600 89.033157,148.355011 
	C86.661667,149.308426 84.874474,150.109268 83.087280,150.910095 
	C81.930702,151.124573 80.774132,151.339035 78.909225,151.626419 
	C77.132080,151.786636 76.063248,151.873932 74.811562,151.726379 
	C73.709900,151.905426 72.791100,152.319351 71.872299,152.733292 
	C67.229553,152.866241 62.586811,152.999191 57.171558,152.988068 
	C54.616364,152.489746 52.833679,152.135498 51.050999,151.781250 
	C51.050999,151.781235 50.893433,151.615555 50.599136,151.333252 
	C48.635441,149.503448 46.966045,147.955933 45.296646,146.408417 
	C45.291008,146.077255 45.285374,145.746078 45.219978,144.758560 
	C45.138023,139.393250 45.115826,134.684296 45.093628,129.975342 
	C45.164948,128.594376 45.236263,127.213409 45.345413,125.084030 
	C44.839245,119.246368 44.295246,114.157127 43.751244,109.067886 
	C43.773727,108.610954 43.796215,108.154015 43.796066,106.976357 
	C43.181629,103.170601 42.589836,100.085571 41.998039,97.000542 
	C42.007862,95.612068 42.017681,94.223602 42.030674,91.972031 
	C41.924511,85.059723 41.815178,79.010506 41.705849,72.961288 
	C41.837139,72.219307 41.968426,71.477333 42.239052,70.084641 
	C42.656742,68.836609 42.998425,68.260170 43.203415,67.638649 
	C44.831406,62.702686 48.574810,62.066734 53.063950,62.553009 
	C57.988880,63.086487 57.772549,66.830101 58.090107,70.230049 
	C58.456161,74.149178 58.684090,78.081192 58.972000,82.007614 
	C58.946159,82.759338 58.920319,83.511063 58.896656,85.033585 
	C59.357269,88.176270 59.815712,90.548164 60.274155,92.920059 
	C60.324818,94.648209 60.375481,96.376358 60.429386,98.912201 
	C60.994972,103.468964 61.557316,107.218040 62.119656,110.967117 
z"/>
<path fill="#1C1C1C" opacity="1.000000" stroke="none" 
	d="
M219.931931,188.218536 
	C210.915207,194.647018 200.198044,197.855118 189.276199,199.410583 
	C175.454773,201.379028 161.396805,201.944748 147.642502,198.274887 
	C132.609375,194.263824 119.743240,186.821899 110.578178,173.494537 
	C112.411362,174.421219 114.472229,175.472610 115.998535,177.043396 
	C123.500748,184.764236 131.799622,191.154938 142.174652,194.659210 
	C155.409851,199.129532 168.954071,200.365005 182.640747,198.166473 
	C191.038574,196.817535 199.275177,194.384888 207.519867,192.196533 
	C211.599747,191.113647 215.534225,189.482956 219.931931,188.218536 
z"/>
<path fill="#EAEAEA" opacity="1.000000" stroke="none" 
	d="
M266.152344,128.431244 
	C267.031311,129.287888 268.391693,130.579575 268.440735,131.919266 
	C268.584503,135.844940 268.121765,139.788361 268.057343,143.727463 
	C267.997833,147.366028 269.683594,148.392975 273.135468,147.038498 
	C274.428070,146.531296 276.018707,146.783615 277.473480,146.689636 
	C277.548187,147.178085 277.622925,147.666519 277.697662,148.154968 
	C276.629608,148.688568 275.561554,149.222183 273.554657,150.224838 
	C275.630066,150.681732 276.797333,150.938705 278.172424,151.586731 
	C277.911072,152.407379 277.441925,152.836960 276.972748,153.266571 
	C275.601074,153.259933 274.229401,153.253296 272.188538,153.087860 
	C270.692993,152.589203 269.866608,152.249374 269.040253,151.909546 
	C268.546844,151.367630 268.053436,150.825729 267.394592,149.804306 
	C266.836426,148.545471 266.443726,147.766129 266.051025,146.986801 
	C266.045563,140.953949 266.040070,134.921097 266.152344,128.431244 
z"/>
<path fill="#1C1C1C" opacity="1.000000" stroke="none" 
	d="
M59.268829,81.715218 
	C58.684090,78.081192 58.456161,74.149178 58.090107,70.230049 
	C57.772549,66.830101 57.988880,63.086487 53.063950,62.553009 
	C48.574810,62.066734 44.831406,62.702686 43.203415,67.638649 
	C42.998425,68.260170 42.656742,68.836609 42.165886,69.711311 
	C40.308014,64.024788 43.798855,59.552898 49.296158,60.582329 
	C59.948727,62.577141 59.974583,62.577202 59.946842,73.539604 
	C59.940189,76.167648 59.698990,78.795097 59.268829,81.715218 
z"/>
<path fill="#1C1C1C" opacity="1.000000" stroke="none" 
	d="
M117.395020,198.872849 
	C123.521812,202.604172 129.311203,207.032471 135.575485,210.634949 
	C139.531097,212.909744 144.196198,213.950821 148.760315,215.847076 
	C148.331711,216.734756 147.425568,217.956604 147.077698,217.814255 
	C136.088699,213.317047 124.549187,209.651077 117.395020,198.872849 
z"/>
<path fill="#1C1C1C" opacity="1.000000" stroke="none" 
	d="
M94.647568,167.041840 
	C94.963890,167.646591 94.854362,168.289871 94.859566,168.932205 
	C94.875740,170.929306 94.935440,172.926056 94.978249,174.922943 
	C96.621864,174.003830 98.258492,173.071823 99.913940,172.174561 
	C100.336258,171.945663 100.818260,171.826859 101.252609,171.665024 
	C104.534714,177.903885 107.785599,184.083389 111.032089,190.622955 
	C109.961037,190.240692 108.471169,189.734772 107.901428,188.714874 
	C105.510963,184.435593 103.395927,180.002472 101.839279,176.927811 
	C98.297226,176.418488 95.501183,176.016418 92.705139,175.614365 
	C93.228157,172.769547 93.751183,169.924744 94.647568,167.041840 
z"/>
<path fill="#1C1C1C" opacity="1.000000" stroke="none" 
	d="
M110.599503,172.362503 
	C107.963287,170.495285 106.060196,168.210815 109.344322,164.938950 
	C109.972618,164.313004 109.966011,161.860916 109.401077,161.464508 
	C108.075256,160.534271 105.767570,159.448242 104.689682,160.013245 
	C101.534721,161.666992 98.786652,164.096954 95.564133,166.375732 
	C95.521950,161.781113 103.998062,155.434219 108.023407,157.394196 
	C109.642830,158.182724 111.110634,160.698898 111.345863,162.590622 
	C111.723137,165.624634 111.017487,168.793304 110.599503,172.362503 
z"/>
<path fill="#1C1C1C" opacity="1.000000" stroke="none" 
	d="
M325.853546,101.982422 
	C325.989258,101.553078 326.124939,101.123734 326.455139,100.042336 
	C326.002502,94.293251 325.355377,89.196213 324.708221,84.099182 
	C324.401703,83.135483 324.095215,82.171783 323.523438,80.726654 
	C323.190582,79.826866 323.123016,79.408501 323.055450,78.990143 
	C324.701660,81.801308 326.830017,84.441933 327.896912,87.458023 
	C330.359314,94.419159 329.054474,101.374268 326.585693,108.101578 
	C326.173981,109.223549 324.824249,110.001312 323.459137,110.974777 
	C323.010315,111.011414 322.749451,110.787979 322.770386,110.428146 
	C323.812042,107.373009 324.832794,104.677711 325.853546,101.982422 
z"/>
<path fill="#1C1C1C" opacity="1.000000" stroke="none" 
	d="
M269.046143,152.284103 
	C269.866608,152.249374 270.692993,152.589203 271.781738,153.152985 
	C272.359833,157.156738 272.563293,160.950882 273.042389,164.709869 
	C273.256287,166.388031 274.024261,167.995575 274.267822,169.818420 
	C270.206055,164.990738 266.417267,159.979797 262.504456,154.641434 
	C264.643951,155.165009 266.907471,156.016022 270.056885,157.200104 
	C269.622467,155.236877 269.337250,153.947769 269.046143,152.284103 
z"/>
<path fill="#EAEAEA" opacity="1.000000" stroke="none" 
	d="
M322.902405,78.922165 
	C323.123016,79.408501 323.190582,79.826866 323.255554,80.568649 
	C318.944397,78.346016 314.512878,75.977371 310.409698,73.134834 
	C309.321594,72.381020 309.242981,70.170006 309.171875,68.319565 
	C310.594269,68.489433 311.545624,68.967819 312.496979,69.446205 
	C312.496979,69.446205 312.581726,69.416153 312.718018,69.744141 
	C313.556519,70.437317 314.258698,70.802505 314.960876,71.167694 
	C314.960876,71.167694 315.083405,71.361504 315.328125,71.674759 
	C316.748596,72.739891 317.924377,73.491776 319.100128,74.243652 
	C319.493286,74.756714 319.886475,75.269783 320.605835,76.246521 
	C321.537872,77.313217 322.143646,77.916245 322.749451,78.519264 
	C322.749451,78.519264 322.749359,78.854187 322.902405,78.922165 
z"/>
<path fill="#1C1C1C" opacity="1.000000" stroke="none" 
	d="
M249.985718,156.389236 
	C256.453003,159.386719 256.445343,159.480576 251.143768,164.452179 
	C248.399445,167.025711 245.754776,169.705505 242.740143,172.443466 
	C241.905243,171.918900 241.395294,171.288162 240.685959,170.410782 
	C246.259689,167.595062 250.807755,163.978134 249.985718,156.389236 
z"/>
<path fill="#414141" opacity="1.000000" stroke="none" 
	d="
M345.957825,68.297966 
	C339.751190,77.863770 339.223785,87.862244 343.874207,98.665131 
	C338.978424,93.393265 337.936707,86.600624 339.618195,79.762367 
	C340.622803,75.676659 343.544556,72.062363 345.957825,68.297966 
z"/>
<path fill="#EAEAEA" opacity="1.000000" stroke="none" 
	d="
M265.886841,101.967781 
	C266.122345,108.128242 266.357880,114.288712 266.049011,120.596336 
	C265.228760,120.538307 264.952942,120.333122 264.677094,120.127930 
	C264.750275,114.631638 264.823425,109.135338 265.012726,103.128754 
	C265.381500,102.401566 265.634186,102.184677 265.886841,101.967781 
z"/>
<path fill="#1C1C1C" opacity="1.000000" stroke="none" 
	d="
M225.297653,151.484772 
	C232.330978,147.210205 238.967438,142.421036 244.209137,135.419434 
	C243.034683,137.743576 241.930786,140.574448 240.030975,142.690872 
	C236.122406,147.045120 231.726074,150.916122 225.297653,151.484772 
z"/>
<path fill="#EAEAEA" opacity="1.000000" stroke="none" 
	d="
M267.188660,65.208214 
	C267.802124,68.846306 268.945831,72.492462 268.890625,76.120392 
	C268.826141,80.358154 267.715424,84.580009 266.687500,88.919128 
	C266.190735,84.999260 266.065063,80.969009 265.939484,76.156197 
	C265.390259,73.888481 264.840912,72.403328 264.291626,70.918182 
	C264.339539,70.497307 264.387451,70.076424 264.506165,69.081810 
	C264.702789,67.663589 264.828674,66.819092 264.954529,65.974602 
	C264.954529,65.974602 265.006927,65.986237 265.263611,65.912178 
	C265.928558,65.482292 266.336853,65.126472 266.857605,64.878448 
	C266.970062,64.986244 267.188660,65.208214 267.188660,65.208214 
z"/>
<path fill="#1C1C1C" opacity="1.000000" stroke="none" 
	d="
M119.896530,66.058075 
	C116.641937,73.208298 113.016975,80.338905 109.144882,87.722321 
	C109.257492,85.617538 109.060341,82.977318 110.085449,80.957405 
	C112.747665,75.711731 113.590828,69.224907 119.896530,66.058075 
z"/>
<path fill="#1C1C1C" opacity="1.000000" stroke="none" 
	d="
M282.200989,148.035675 
	C282.342834,141.129440 282.484650,134.223206 283.006256,126.688469 
	C283.854279,126.160568 284.322571,126.261162 284.790833,126.361755 
	C284.869171,132.661224 285.081116,138.963867 284.932495,145.257965 
	C284.895081,146.841858 283.702637,148.398483 282.552368,150.006927 
	C282.063721,150.046219 281.810089,149.824020 281.887390,149.520050 
	C282.043427,148.822617 282.122223,148.429153 282.200989,148.035675 
z"/>
<path fill="#1C1C1C" opacity="1.000000" stroke="none" 
	d="
M241.220581,173.256775 
	C236.648560,177.292374 231.697174,181.222260 226.384949,185.132141 
	C226.096024,183.652008 226.167953,182.191895 226.183990,181.866302 
	C231.581329,178.657013 236.211288,175.904022 241.220581,173.256775 
z"/>
<path fill="#1C1C1C" opacity="1.000000" stroke="none" 
	d="
M148.944611,60.522308 
	C144.820969,60.513588 140.629700,59.907822 136.429245,59.835190 
	C133.565369,59.785667 130.688599,60.481323 127.399475,60.862965 
	C129.160004,59.694839 131.398575,57.419697 133.505432,57.535744 
	C138.660385,57.819702 143.754486,59.208370 148.944611,60.522308 
z"/>
<path fill="#1C1C1C" opacity="1.000000" stroke="none" 
	d="
M172.483795,86.684616 
	C169.019897,81.338791 165.815384,75.743149 162.581207,69.804184 
	C163.478958,69.861717 164.904892,70.011009 165.254379,70.703545 
	C167.870224,75.886948 170.273422,81.177681 172.483795,86.684616 
z"/>
<path fill="#1C1C1C" opacity="1.000000" stroke="none" 
	d="
M165.377350,136.007950 
	C167.892990,129.524658 170.761551,123.035088 173.885895,116.290085 
	C173.776855,118.611198 173.984055,121.457207 172.924484,123.706467 
	C170.908920,127.985069 168.169235,131.922546 165.377350,136.007950 
z"/>
<path fill="#414141" opacity="1.000000" stroke="none" 
	d="
M389.419128,143.035492 
	C392.327637,136.334076 394.754700,129.465439 393.198364,121.359192 
	C397.049591,126.525833 394.930450,132.201294 393.202972,137.744736 
	C392.601715,139.674225 390.948334,141.275864 389.419128,143.035492 
z"/>
<path fill="#1C1C1C" opacity="1.000000" stroke="none" 
	d="
M227.940948,60.527290 
	C222.274887,60.451405 216.535309,59.998547 210.355896,59.428604 
	C210.602081,58.552517 211.404938,57.060440 211.956024,57.148258 
	C217.283997,57.997288 222.569656,59.111717 227.940948,60.527290 
z"/>
<path fill="#414141" opacity="1.000000" stroke="none" 
	d="
M354.843140,131.821701 
	C353.804871,130.972900 352.576721,129.862595 351.881256,128.483627 
	C349.232605,123.231934 346.365753,122.223473 340.360901,124.873703 
	C340.965851,120.787453 344.569580,121.741081 346.785614,122.393272 
	C349.330963,123.142395 351.593781,125.314278 353.587769,127.267776 
	C354.505280,128.166672 354.490143,130.017593 354.843140,131.821701 
z"/>
<path fill="#1C1C1C" opacity="1.000000" stroke="none" 
	d="
M41.325340,73.067444 
	C41.815178,79.010506 41.924511,85.059723 41.923279,91.567505 
	C41.304081,91.672531 40.346313,91.309410 40.353622,90.966888 
	C40.480225,85.034286 40.725498,79.104218 41.325340,73.067444 
z"/>
<path fill="#414141" opacity="1.000000" stroke="none" 
	d="
M351.227234,107.083221 
	C356.944061,109.736679 362.606445,112.741837 368.437500,116.035492 
	C362.795044,113.360977 356.983917,110.397949 351.227234,107.083221 
z"/>
<path fill="#1C1C1C" opacity="1.000000" stroke="none" 
	d="
M43.478745,109.372299 
	C44.295246,114.157127 44.839245,119.246368 45.243465,124.679733 
	C44.411964,123.013580 43.323109,121.042145 43.121811,118.983894 
	C42.821533,115.913620 43.147003,112.782143 43.478745,109.372299 
z"/>
<path fill="#1C1C1C" opacity="1.000000" stroke="none" 
	d="
M119.952164,147.549576 
	C124.775688,149.010117 129.582275,150.843826 134.676605,152.908279 
	C130.314285,154.626602 121.993103,151.738495 119.952164,147.549576 
z"/>
<path fill="#1C1C1C" opacity="1.000000" stroke="none" 
	d="
M44.746048,130.173004 
	C45.115826,134.684296 45.138023,139.393250 45.072021,144.552399 
	C44.314808,143.738998 43.039013,142.449768 43.091118,141.216644 
	C43.244389,137.589386 43.924568,133.984390 44.746048,130.173004 
z"/>
<path fill="#1C1C1C" opacity="1.000000" stroke="none" 
	d="
M210.661926,213.680115 
	C215.572464,211.303848 220.899094,209.086746 226.605865,206.898224 
	C225.581528,208.120438 224.359650,209.801331 222.735916,210.409790 
	C218.952774,211.827377 214.976227,212.728790 210.661926,213.680115 
z"/>
<path fill="#1C1C1C" opacity="1.000000" stroke="none" 
	d="
M145.742126,151.743774 
	C149.182770,149.236176 153.035400,146.840210 157.241333,144.365723 
	C157.707535,144.888397 157.820419,145.489578 157.966644,146.545380 
	C157.999985,147.000000 158.008987,146.987823 158.008987,146.987823 
	C156.256714,148.151154 154.504440,149.314499 152.752167,150.477829 
	C152.916931,150.674957 153.081696,150.872101 153.246445,151.069229 
	C150.882339,151.331284 148.518234,151.593353 145.742126,151.743774 
z"/>
<path fill="#1C1C1C" opacity="1.000000" stroke="none" 
	d="
M106.510109,100.078125 
	C106.987450,104.691154 107.075401,109.397308 107.042648,114.557556 
	C106.282913,113.713219 105.086327,112.404129 105.110878,111.118340 
	C105.180641,107.464211 105.748772,103.819595 106.510109,100.078125 
z"/>
<path fill="#1C1C1C" opacity="1.000000" stroke="none" 
	d="
M165.070648,219.041168 
	C169.346832,218.651474 173.764755,218.546295 178.628418,218.600250 
	C174.453568,218.948151 169.832962,219.136917 165.070648,219.041168 
z"/>
<path fill="#1C1C1C" opacity="1.000000" stroke="none" 
	d="
M247.759918,78.265594 
	C244.665710,74.742226 241.687317,70.832634 238.574738,66.598137 
	C239.542450,66.204025 241.379578,65.703781 241.631241,66.133049 
	C243.871979,69.955139 245.832565,73.941467 247.759918,78.265594 
z"/>
<path fill="#414141" opacity="1.000000" stroke="none" 
	d="
M386.669678,108.013519 
	C382.264374,105.659592 377.985687,102.967041 373.547363,99.981255 
	C377.857269,102.350319 382.326813,105.012611 386.669678,108.013519 
z"/>
<path fill="#1C1C1C" opacity="1.000000" stroke="none" 
	d="
M262.011200,153.636078 
	C258.248199,153.329651 254.501907,152.631882 250.389526,151.985321 
	C250.626556,151.044983 251.549850,149.121201 251.784683,149.201874 
	C255.252823,150.393066 258.629517,151.850464 262.011200,153.636078 
z"/>
<path fill="#1C1C1C" opacity="1.000000" stroke="none" 
	d="
M252.966675,191.697784 
	C255.850311,188.090912 259.086700,184.599442 262.656250,181.042252 
	C261.839874,186.439285 257.713806,189.245926 252.966675,191.697784 
z"/>
<path fill="#1C1C1C" opacity="1.000000" stroke="none" 
	d="
M209.069992,152.427612 
	C213.331146,151.920883 217.666870,151.813614 222.463776,151.768631 
	C222.226547,152.545929 221.500504,153.899612 220.834229,153.870804 
	C216.929932,153.701981 213.039612,153.210037 209.069992,152.427612 
z"/>
<path fill="#1C1C1C" opacity="1.000000" stroke="none" 
	d="
M64.988106,134.217957 
	C64.173691,133.499741 62.706982,132.480087 62.532066,131.273224 
	C62.083073,128.175293 62.207512,124.994278 62.229446,121.400513 
	C62.899742,122.498688 63.655998,124.004929 63.939476,125.595428 
	C64.423813,128.312881 64.611778,131.083145 64.988106,134.217957 
z"/>
<path fill="#1C1C1C" opacity="1.000000" stroke="none" 
	d="
M301.994995,65.045326 
	C300.891113,64.671677 299.787231,64.298027 298.146332,63.698662 
	C296.730255,63.406067 295.851166,63.339191 294.972107,63.272308 
	C294.240631,63.109077 293.509155,62.945847 292.388153,62.569256 
	C292.012634,62.169685 292.026672,61.983475 292.040680,61.797256 
	C295.340424,61.624054 298.640808,61.367603 301.939026,61.392693 
	C302.312714,61.395538 302.674377,62.983101 302.780518,64.328926 
	C302.344635,64.896461 302.169830,64.970894 301.994995,65.045326 
z"/>
<path fill="#1C1C1C" opacity="1.000000" stroke="none" 
	d="
M264.332855,180.177185 
	C265.105988,179.689941 266.194641,179.286087 267.319519,179.089050 
	C269.355774,178.732346 271.413635,178.498993 273.814697,178.130020 
	C275.160034,181.230301 273.367615,182.217270 270.727264,181.939041 
	C268.673553,181.722641 266.683197,180.904495 264.332855,180.177185 
z"/>
<path fill="#414141" opacity="1.000000" stroke="none" 
	d="
M385.015381,83.798630 
	C387.954987,80.785454 389.368164,77.241295 388.104858,72.391968 
	C391.831665,76.174339 390.725220,80.983124 385.015381,83.798630 
z"/>
<path fill="#EAEAEA" opacity="1.000000" stroke="none" 
	d="
M285.182861,126.257507 
	C284.322571,126.261162 283.854279,126.160568 283.034546,126.175758 
	C283.223938,125.522614 283.742615,124.111549 284.309509,124.091927 
	C287.342407,123.986870 290.387299,124.229019 293.579071,124.898010 
	C293.479156,125.705742 293.228241,125.966621 292.977356,126.227509 
	C290.509857,126.202759 288.042358,126.178009 285.182861,126.257507 
z"/>
<path fill="#1C1C1C" opacity="1.000000" stroke="none" 
	d="
M62.408978,110.688881 
	C61.557316,107.218040 60.994972,103.468964 60.571655,99.322968 
	C64.465515,102.219070 62.802818,106.449692 62.408978,110.688881 
z"/>
<path fill="#414141" opacity="1.000000" stroke="none" 
	d="
M357.076416,61.230751 
	C353.989960,63.669121 350.514435,65.942261 346.696930,68.261429 
	C347.737396,62.952000 352.030640,61.749496 357.076416,61.230751 
z"/>
<path fill="#EAEAEA" opacity="1.000000" stroke="none" 
	d="
M297.254028,124.763992 
	C297.049286,123.245163 297.220215,121.841461 297.290955,121.260307 
	C300.555786,121.260307 303.305939,121.260307 306.268921,121.722427 
	C304.313599,123.096344 302.145416,124.008141 299.977234,124.919945 
	C299.194702,124.906334 298.412170,124.892723 297.254028,124.763992 
z"/>
<path fill="#414141" opacity="1.000000" stroke="none" 
	d="
M393.322510,118.772224 
	C390.950562,115.702148 388.837311,112.414841 386.675720,108.789581 
	C391.804779,109.851303 392.536041,114.311211 393.322510,118.772224 
z"/>
<path fill="#EAEAEA" opacity="1.000000" stroke="none" 
	d="
M278.015076,61.489677 
	C277.421204,62.184605 276.934265,63.321922 276.214508,63.495876 
	C273.482300,64.156181 270.674774,64.504791 267.542053,65.089081 
	C267.188660,65.208214 266.970062,64.986244 266.959045,64.559067 
	C268.645996,63.138062 270.343964,62.144238 272.041931,61.150406 
	C272.485199,61.182369 272.928467,61.214340 274.081665,61.230858 
	C275.866119,61.306828 276.940582,61.398251 278.015076,61.489677 
z"/>
<path fill="#1C1C1C" opacity="1.000000" stroke="none" 
	d="
M110.571762,133.271790 
	C111.914955,135.438309 112.988152,137.830750 114.062256,140.595596 
	C113.039513,141.293137 112.015877,141.618240 110.891068,141.975494 
	C110.680351,138.944016 110.491058,136.220856 110.571762,133.271790 
z"/>
<path fill="#414141" opacity="1.000000" stroke="none" 
	d="
M375.885345,128.152847 
	C376.627625,132.914368 373.516144,135.170151 369.198730,136.648926 
	C371.103607,133.796112 373.346619,131.065002 375.885345,128.152847 
z"/>
<path fill="#1C1C1C" opacity="1.000000" stroke="none" 
	d="
M41.702408,97.259613 
	C42.589836,100.085571 43.181629,103.170601 43.658733,106.656326 
	C39.819572,104.552490 41.023590,100.943626 41.702408,97.259613 
z"/>
<path fill="#1C1C1C" opacity="1.000000" stroke="none" 
	d="
M252.750397,91.258659 
	C250.968811,87.730804 249.320969,83.778587 247.724243,79.438660 
	C249.478302,82.978737 251.181213,86.906517 252.750397,91.258659 
z"/>
<path fill="#1C1C1C" opacity="1.000000" stroke="none" 
	d="
M227.822571,206.826752 
	C230.380844,205.124207 233.325912,203.525375 236.635635,201.964157 
	C234.953461,205.220490 232.963898,208.541321 227.822571,206.826752 
z"/>
<path fill="#414141" opacity="1.000000" stroke="none" 
	d="
M342.942139,145.383881 
	C346.391632,146.985229 349.794617,148.956131 353.352783,151.245300 
	C348.974670,151.445770 344.813293,150.648666 342.942139,145.383881 
z"/>
<path fill="#1C1C1C" opacity="1.000000" stroke="none" 
	d="
M197.667358,216.649567 
	C200.974243,215.419510 204.738007,214.371643 208.792053,213.487717 
	C206.205383,217.384781 202.119247,216.951324 197.667358,216.649567 
z"/>
<path fill="#414141" opacity="1.000000" stroke="none" 
	d="
M361.073242,79.856140 
	C364.312500,77.086784 368.031464,75.215462 372.279907,79.171951 
	C368.744904,79.676544 365.117767,79.825424 361.073242,79.856140 
z"/>
<path fill="#414141" opacity="1.000000" stroke="none" 
	d="
M337.540344,135.255127 
	C339.519379,138.118713 341.253754,141.202835 342.986938,144.648560 
	C341.089050,141.831985 339.192383,138.653839 337.540344,135.255127 
z"/>
<path fill="#1C1C1C" opacity="1.000000" stroke="none" 
	d="
M187.420959,125.360870 
	C188.675568,128.166245 189.689667,131.238770 190.625702,134.685394 
	C186.589798,132.927979 187.923264,128.907364 187.420959,125.360870 
z"/>
<path fill="#1C1C1C" opacity="1.000000" stroke="none" 
	d="
M248.522446,128.988770 
	C249.438538,125.582535 250.701401,122.138985 252.273270,118.486198 
	C254.010818,122.762566 251.439606,125.856873 248.522446,128.988770 
z"/>
<path fill="#414141" opacity="1.000000" stroke="none" 
	d="
M381.803467,65.907791 
	C378.178406,64.876938 374.518982,63.487957 370.656464,61.803951 
	C374.225281,62.855839 377.997162,64.202759 381.803467,65.907791 
z"/>
<path fill="#1C1C1C" opacity="1.000000" stroke="none" 
	d="
M190.226303,80.941666 
	C189.708481,83.710106 188.852524,86.478767 187.720673,89.488129 
	C186.592422,86.336372 186.072449,83.036324 190.226303,80.941666 
z"/>
<path fill="#1C1C1C" opacity="1.000000" stroke="none" 
	d="
M265.787476,101.525650 
	C265.634186,102.184677 265.381500,102.401566 264.897644,102.736061 
	C264.490112,99.589569 261.741913,96.224678 265.386169,93.030388 
	C265.711761,95.670311 265.699921,98.376915 265.787476,101.525650 
z"/>
<path fill="#1C1C1C" opacity="1.000000" stroke="none" 
	d="
M158.708160,143.733948 
	C160.326843,141.149002 162.344315,138.676651 164.688629,136.114319 
	C164.208176,139.509613 163.189438,142.835205 158.708160,143.733948 
z"/>
<path fill="#414141" opacity="1.000000" stroke="none" 
	d="
M359.792969,90.835205 
	C356.209991,87.675224 356.192291,83.968788 359.651978,80.087738 
	C359.965607,83.499290 359.913818,86.962868 359.792969,90.835205 
z"/>
<path fill="#1C1C1C" opacity="1.000000" stroke="none" 
	d="
M175.944031,105.892166 
	C175.144562,103.308235 174.688309,100.511131 174.336273,97.329437 
	C177.945801,99.245224 177.223328,102.439522 175.944031,105.892166 
z"/>
<path fill="#1C1C1C" opacity="1.000000" stroke="none" 
	d="
M110.981796,191.342651 
	C113.127197,193.254425 115.235413,195.536926 117.407829,198.145447 
	C113.180595,198.262207 112.174576,194.879654 110.981796,191.342651 
z"/>
<path fill="#414141" opacity="1.000000" stroke="none" 
	d="
M364.050659,136.133667 
	C361.082031,135.265564 358.013519,134.077591 354.867615,132.549164 
	C357.843719,133.410416 360.897247,134.612106 364.050659,136.133667 
z"/>
<path fill="#414141" opacity="1.000000" stroke="none" 
	d="
M344.186157,99.980103 
	C346.564117,101.770210 348.843964,103.916473 351.192902,106.388695 
	C348.870667,104.588524 346.479370,102.462395 344.186157,99.980103 
z"/>
<path fill="#1C1C1C" opacity="1.000000" stroke="none" 
	d="
M312.608002,69.086243 
	C311.545624,68.967819 310.594269,68.489433 309.318115,68.015579 
	C308.147156,67.466347 307.300995,66.912590 305.977325,66.177109 
	C305.325806,65.691017 305.151764,65.386658 304.977722,65.082291 
	C308.731506,63.804291 310.740540,66.232834 312.608002,69.086243 
z"/>
<path fill="#1C1C1C" opacity="1.000000" stroke="none" 
	d="
M278.424011,61.389183 
	C276.940582,61.398251 275.866119,61.306828 274.396088,61.109367 
	C276.655243,57.399841 279.747498,58.794220 282.921570,60.615082 
	C281.610870,61.096920 280.221924,61.192806 278.424011,61.389183 
z"/>
<path fill="#1C1C1C" opacity="1.000000" stroke="none" 
	d="
M271.840363,60.872383 
	C270.343964,62.144238 268.645996,63.138062 266.846558,64.451263 
	C266.336853,65.126472 265.928558,65.482292 265.244080,65.893585 
	C264.419617,60.710892 268.029633,60.653164 271.840363,60.872383 
z"/>
<path fill="#1C1C1C" opacity="1.000000" stroke="none" 
	d="
M300.178894,125.202400 
	C302.145416,124.008141 304.313599,123.096344 306.682312,121.871857 
	C307.175507,121.671173 307.473175,121.686615 307.960510,121.735901 
	C305.556946,123.072495 302.968719,124.278679 300.178894,125.202400 
z"/>
<path fill="#1C1C1C" opacity="1.000000" stroke="none" 
	d="
M253.135071,116.885605 
	C253.101974,114.561661 253.413773,112.067482 253.979065,109.315811 
	C253.981689,111.610680 253.730804,114.163025 253.135071,116.885605 
z"/>
<path fill="#1C1C1C" opacity="1.000000" stroke="none" 
	d="
M60.539299,92.643509 
	C59.815712,90.548164 59.357269,88.176270 59.021450,85.391945 
	C59.697529,87.441994 60.250988,89.904472 60.539299,92.643509 
z"/>
<path fill="#1C1C1C" opacity="1.000000" stroke="none" 
	d="
M192.382507,140.593765 
	C194.399811,142.206024 196.266876,144.194244 198.259506,146.501587 
	C196.334122,144.870377 194.283188,142.920059 192.382507,140.593765 
z"/>
<path fill="#414141" opacity="1.000000" stroke="none" 
	d="
M370.975281,118.397591 
	C372.711975,120.125465 374.449799,122.204979 376.094879,124.641777 
	C374.326874,122.915787 372.651642,120.832512 370.975281,118.397591 
z"/>
<path fill="#1C1C1C" opacity="1.000000" stroke="none" 
	d="
M277.003387,153.589935 
	C277.441925,152.836960 277.911072,152.407379 278.567627,151.716125 
	C279.075684,151.385529 279.396362,151.316589 280.123962,151.025375 
	C280.957306,150.476746 281.383698,150.150391 281.810089,149.824036 
	C281.810089,149.824020 282.063721,150.046219 282.197266,150.152069 
	C281.546722,152.898636 280.696655,155.443726 277.003387,153.589935 
z"/>
<path fill="#1C1C1C" opacity="1.000000" stroke="none" 
	d="
M254.494858,99.679527 
	C253.676086,97.807190 253.120773,95.678848 252.688980,93.252472 
	C253.461105,95.110802 254.109711,97.267166 254.494858,99.679527 
z"/>
<path fill="#1C1C1C" opacity="1.000000" stroke="none" 
	d="
M265.751282,147.082642 
	C266.443726,147.766129 266.836426,148.545471 267.161621,149.652435 
	C265.406952,149.724808 263.719788,149.469574 262.032593,149.214340 
	C262.060699,148.788727 262.088776,148.363129 262.116852,147.937531 
	C263.228424,147.684525 264.339996,147.431503 265.751282,147.082642 
z"/>
<path fill="#414141" opacity="1.000000" stroke="none" 
	d="
M366.827148,60.866524 
	C365.216949,61.214890 363.413727,61.301323 361.298279,61.250404 
	C362.868744,60.943565 364.751434,60.774078 366.827148,60.866524 
z"/>
<path fill="#1C1C1C" opacity="1.000000" stroke="none" 
	d="
M108.333817,90.038452 
	C108.271088,92.112160 107.871315,94.267212 107.275833,96.721100 
	C107.385681,94.719894 107.691223,92.419838 108.333817,90.038452 
z"/>
<path fill="#414141" opacity="1.000000" stroke="none" 
	d="
M377.161621,151.272247 
	C378.744720,149.960175 380.490723,148.927551 382.592712,147.905106 
	C381.074005,149.127411 379.199280,150.339554 377.161621,151.272247 
z"/>
<path fill="#1C1C1C" opacity="1.000000" stroke="none" 
	d="
M242.814453,198.805389 
	C244.032455,197.454529 245.660004,196.204727 247.635376,194.938477 
	C248.168777,198.366699 245.848404,198.818146 242.814453,198.805389 
z"/>
<path fill="#414141" opacity="1.000000" stroke="none" 
	d="
M387.851379,70.937195 
	C386.057892,69.936447 384.334747,68.567574 382.512268,66.881622 
	C384.249207,67.899391 386.085480,69.234238 387.851379,70.937195 
z"/>
<path fill="#1C1C1C" opacity="1.000000" stroke="none" 
	d="
M200.009964,148.423218 
	C202.101334,149.033325 204.211792,150.014847 206.518524,151.287491 
	C204.486237,150.650604 202.257645,149.722610 200.009964,148.423218 
z"/>
<path fill="#1C1C1C" opacity="1.000000" stroke="none" 
	d="
M186.970398,91.101685 
	C187.000595,92.812126 186.716721,94.700279 186.162933,96.780121 
	C186.147446,95.074341 186.401871,93.176857 186.970398,91.101685 
z"/>
<path fill="#1C1C1C" opacity="1.000000" stroke="none" 
	d="
M45.189659,146.811554 
	C46.966045,147.955933 48.635441,149.503448 50.485188,151.342422 
	C47.494198,151.816254 45.462891,150.558395 45.189659,146.811554 
z"/>
<path fill="#1C1C1C" opacity="1.000000" stroke="none" 
	d="
M154.055710,217.316635 
	C156.119995,217.374847 158.232178,217.793289 160.704895,218.403824 
	C158.744827,218.289581 156.424225,217.983231 154.055710,217.316635 
z"/>
<path fill="#1C1C1C" opacity="1.000000" stroke="none" 
	d="
M51.083817,152.142975 
	C52.833679,152.135498 54.616364,152.489746 56.714771,153.072144 
	C54.718296,155.569199 52.868763,154.398987 51.083817,152.142975 
z"/>
<path fill="#1C1C1C" opacity="1.000000" stroke="none" 
	d="
M185.602936,117.248985 
	C186.418579,118.821129 186.963867,120.606262 187.390076,122.734680 
	C186.624863,121.205978 185.978729,119.333969 185.602936,117.248985 
z"/>
<path fill="#EAEAEA" opacity="1.000000" stroke="none" 
	d="
M291.671906,61.863899 
	C292.026672,61.983475 292.012634,62.169685 292.016144,62.635460 
	C290.356598,62.757858 288.679535,62.600700 286.967041,62.108696 
	C288.388794,61.826080 289.845978,61.878311 291.671906,61.863899 
z"/>
<path fill="#1C1C1C" opacity="1.000000" stroke="none" 
	d="
M138.282623,153.409943 
	C139.755966,152.638489 141.476181,152.150772 143.583801,151.758408 
	C142.157303,152.467072 140.343384,153.080353 138.282623,153.409943 
z"/>
<path fill="#414141" opacity="1.000000" stroke="none" 
	d="
M355.086975,152.093124 
	C356.528320,152.014572 358.086334,152.273956 359.817688,152.796753 
	C358.395264,152.850464 356.799469,152.640762 355.086975,152.093124 
z"/>
<path fill="#1C1C1C" opacity="1.000000" stroke="none" 
	d="
M115.148994,142.920563 
	C116.542198,143.731262 117.851372,144.958466 119.264053,146.507431 
	C116.624947,147.277222 114.982986,146.369156 115.148994,142.920563 
z"/>
<path fill="#1C1C1C" opacity="1.000000" stroke="none" 
	d="
M207.783722,59.430466 
	C206.827881,60.416824 205.725754,61.131142 204.291992,61.784489 
	C204.184250,59.432396 204.397934,57.126640 207.783722,59.430466 
z"/>
<path fill="#1C1C1C" opacity="1.000000" stroke="none" 
	d="
M188.277954,218.400101 
	C189.760391,217.695297 191.486115,217.271713 193.607330,216.932617 
	C192.175629,217.571823 190.348450,218.126572 188.277954,218.400101 
z"/>
<path fill="#1C1C1C" opacity="1.000000" stroke="none" 
	d="
M264.464600,120.556351 
	C264.952942,120.333122 265.228760,120.538307 265.734985,120.876190 
	C265.969147,122.738342 265.972870,124.467796 265.859924,126.615341 
	C265.246185,125.017197 264.749176,123.000977 264.464600,120.556351 
z"/>
<path fill="#1C1C1C" opacity="1.000000" stroke="none" 
	d="
M174.273743,92.840378 
	C173.470032,91.844101 172.945175,90.686745 172.552338,89.223267 
	C176.040985,88.813583 176.261948,90.267159 174.273743,92.840378 
z"/>
<path fill="#1C1C1C" opacity="1.000000" stroke="none" 
	d="
M236.979248,64.642937 
	C234.901459,63.987934 232.805923,62.968830 230.529282,61.649567 
	C232.552612,62.325886 234.757050,63.302364 236.979248,64.642937 
z"/>
<path fill="#1C1C1C" opacity="1.000000" stroke="none" 
	d="
M83.414520,151.197937 
	C84.874474,150.109268 86.661667,149.308426 88.770073,148.596130 
	C87.308113,149.618378 85.524940,150.552078 83.414520,151.197937 
z"/>
<path fill="#1C1C1C" opacity="1.000000" stroke="none" 
	d="
M158.010422,64.632484 
	C156.427353,64.198227 154.845245,63.419003 153.126740,62.337341 
	C154.664017,62.785778 156.337692,63.536644 158.010422,64.632484 
z"/>
<path fill="#1C1C1C" opacity="1.000000" stroke="none" 
	d="
M263.995361,71.090599 
	C264.840912,72.403328 265.390259,73.888481 265.828644,75.706329 
	C265.044861,74.447029 264.371979,72.855019 263.995361,71.090599 
z"/>
<path fill="#1C1C1C" opacity="1.000000" stroke="none" 
	d="
M194.976715,71.078751 
	C194.618164,72.558746 193.863083,73.993828 192.799530,75.599152 
	C192.506149,73.890327 189.712219,70.772041 194.976715,71.078751 
z"/>
<path fill="#1C1C1C" opacity="1.000000" stroke="none" 
	d="
M225.248535,185.244141 
	C224.106430,186.363281 222.559357,187.379013 220.657379,188.374786 
	C221.816177,187.283478 223.329880,186.212112 225.248535,185.244141 
z"/>
<path fill="#414141" opacity="1.000000" stroke="none" 
	d="
M384.946472,146.790497 
	C385.857178,145.478821 387.117981,144.269638 388.710571,143.060959 
	C387.793762,144.338638 386.545197,145.615829 384.946472,146.790497 
z"/>
<path fill="#1C1C1C" opacity="1.000000" stroke="none" 
	d="
M185.183716,105.039825 
	C185.569122,106.375633 185.642563,107.809517 185.575775,109.654160 
	C185.247604,108.422585 185.059677,106.780235 185.183716,105.039825 
z"/>
<path fill="#414141" opacity="1.000000" stroke="none" 
	d="
M370.261475,153.444946 
	C371.397522,152.667816 372.766144,152.159439 374.505035,151.725494 
	C373.414886,152.437851 371.954468,153.075775 370.261475,153.444946 
z"/>
<path fill="#1C1C1C" opacity="1.000000" stroke="none" 
	d="
M310.151001,121.481293 
	C310.493591,120.722267 311.000885,120.187515 312.076660,119.391930 
	C313.049194,119.029701 313.453217,118.928299 313.958984,118.950577 
	C314.060669,119.074257 314.255981,119.328026 314.255981,119.328018 
	C312.942535,120.120529 311.629089,120.913040 310.151001,121.481293 
z"/>
<path fill="#1C1C1C" opacity="1.000000" stroke="none" 
	d="
M264.602325,65.956467 
	C264.828674,66.819092 264.702789,67.663589 264.394623,68.779808 
	C263.277191,68.492317 262.342072,67.933105 260.684845,66.942070 
	C262.347412,66.474007 263.298767,66.206169 264.602325,65.956467 
z"/>
<path fill="#1C1C1C" opacity="1.000000" stroke="none" 
	d="
M108.661728,126.215691 
	C109.441452,127.174385 109.959015,128.327255 110.353165,129.782806 
	C109.619682,128.860275 109.009628,127.635078 108.661728,126.215691 
z"/>
<path fill="#414141" opacity="1.000000" stroke="none" 
	d="
M339.592957,124.953590 
	C339.418030,126.155479 338.909210,127.360802 338.145569,128.775848 
	C338.346863,127.642715 338.802979,126.299866 339.592957,124.953590 
z"/>
<path fill="#1C1C1C" opacity="1.000000" stroke="none" 
	d="
M319.078186,73.894592 
	C317.924377,73.491776 316.748596,72.739891 315.441345,71.692924 
	C316.558624,72.113739 317.807434,72.829636 319.078186,73.894592 
z"/>
<path fill="#1C1C1C" opacity="1.000000" stroke="none" 
	d="
M237.912262,201.860840 
	C238.780334,200.825974 240.039429,199.877930 241.646118,198.948822 
	C240.763580,199.961060 239.533447,200.954361 237.912262,201.860840 
z"/>
<path fill="#1C1C1C" opacity="1.000000" stroke="none" 
	d="
M293.009949,126.532326 
	C293.228241,125.966621 293.479156,125.705742 293.859924,125.197861 
	C294.767761,124.955559 295.545776,124.960258 296.701416,125.070969 
	C295.733582,125.730377 294.388092,126.283768 293.009949,126.532326 
z"/>
<path fill="#1C1C1C" opacity="1.000000" stroke="none" 
	d="
M124.159393,62.201542 
	C123.437263,63.359142 122.297585,64.434715 120.850601,65.653427 
	C121.609474,64.570885 122.675652,63.345200 124.159393,62.201542 
z"/>
<path fill="#1C1C1C" opacity="1.000000" stroke="none" 
	d="
M174.780243,112.913704 
	C174.556915,111.590607 174.702942,110.130699 175.134674,108.432854 
	C175.330109,109.722244 175.239853,111.249565 174.780243,112.913704 
z"/>
<path fill="#1C1C1C" opacity="1.000000" stroke="none" 
	d="
M70.775909,134.625290 
	C69.803436,135.024292 68.637108,135.157959 67.252441,135.077621 
	C68.216743,134.695724 69.399406,134.527847 70.775909,134.625290 
z"/>
<path fill="#1C1C1C" opacity="1.000000" stroke="none" 
	d="
M323.142334,111.121262 
	C322.436005,112.468193 321.597595,113.705284 320.232544,114.824257 
	C319.579742,114.579895 319.453583,114.453636 319.432861,114.031250 
	C320.608673,112.752747 321.679077,111.770363 322.749451,110.787979 
	C322.749451,110.787979 323.010315,111.011414 323.142334,111.121262 
z"/>
<path fill="#1C1C1C" opacity="1.000000" stroke="none" 
	d="
M248.744110,194.748611 
	C249.535507,193.625717 250.726074,192.605408 252.259644,191.587463 
	C251.449524,192.676956 250.296402,193.764084 248.744110,194.748611 
z"/>
<path fill="#1C1C1C" opacity="1.000000" stroke="none" 
	d="
M245.062317,134.901733 
	C245.480621,133.520325 246.290573,132.138290 247.404266,130.584229 
	C246.956665,131.908524 246.205307,133.404816 245.062317,134.901733 
z"/>
<path fill="#1C1C1C" opacity="1.000000" stroke="none" 
	d="
M74.994423,151.961243 
	C76.063248,151.873932 77.132080,151.786636 78.590958,151.798172 
	C77.807426,152.467682 76.633850,153.038361 75.229187,153.064072 
	C74.996872,152.333130 74.995651,152.147186 74.994423,151.961243 
z"/>
<path fill="#1C1C1C" opacity="1.000000" stroke="none" 
	d="
M162.646454,69.030464 
	C161.555649,68.570755 160.593506,67.728828 159.542389,66.572647 
	C160.560654,67.055008 161.667892,67.851624 162.646454,69.030464 
z"/>
<path fill="#414141" opacity="1.000000" stroke="none" 
	d="
M363.026184,93.577408 
	C361.949829,93.260780 360.867340,92.595360 359.761963,91.598312 
	C360.832733,91.920662 361.926361,92.574638 363.026184,93.577408 
z"/>
<path fill="#414141" opacity="1.000000" stroke="none" 
	d="
M368.040253,96.218735 
	C367.015717,96.091995 365.894684,95.628784 364.591858,94.900208 
	C365.587982,95.050659 366.765839,95.466469 368.040253,96.218735 
z"/>
<path fill="#414141" opacity="1.000000" stroke="none" 
	d="
M381.104431,84.930092 
	C381.771393,84.404861 382.593384,84.160683 383.730988,84.016174 
	C383.117554,84.480942 382.188507,84.846039 381.104431,84.930092 
z"/>
<path fill="#1C1C1C" opacity="1.000000" stroke="none" 
	d="
M107.343475,120.601898 
	C107.947014,121.281845 108.383781,122.327148 108.714508,123.711487 
	C108.131203,123.022766 107.653946,121.995010 107.343475,120.601898 
z"/>
<path fill="#1C1C1C" opacity="1.000000" stroke="none" 
	d="
M249.712311,152.019089 
	C250.016434,152.807312 249.996063,153.592514 249.766220,154.714752 
	C249.500443,154.039871 249.444138,153.027985 249.712311,152.019089 
z"/>
<path fill="#EAEAEA" opacity="1.000000" stroke="none" 
	d="
M304.632294,65.085907 
	C305.151764,65.386658 305.325806,65.691017 305.663849,66.222107 
	C304.611328,66.245613 303.394836,66.042389 302.086670,65.442245 
	C302.169830,64.970894 302.344635,64.896461 302.773193,64.692276 
	C303.446899,64.738190 303.866882,64.913857 304.632294,65.085907 
z"/>
<path fill="#1C1C1C" opacity="1.000000" stroke="none" 
	d="
M84.941010,131.986938 
	C84.285515,132.627579 83.485939,132.952744 82.363182,133.173035 
	C82.958977,132.602600 83.877960,132.137024 84.941010,131.986938 
z"/>
<path fill="#9C9C9C" opacity="1.000000" stroke="none" 
	d="
M74.811562,151.726379 
	C74.995651,152.147186 74.996872,152.333130 75.006737,152.797943 
	C74.207466,153.086258 73.399559,153.095703 72.231979,152.919220 
	C72.791100,152.319351 73.709900,151.905426 74.811562,151.726379 
z"/>
<path fill="#1C1C1C" opacity="1.000000" stroke="none" 
	d="
M95.880844,143.812958 
	C95.576637,143.078598 95.634438,142.379303 95.984268,141.333862 
	C96.447647,140.973663 96.619003,140.959579 96.790367,140.945480 
	C96.607857,141.912994 96.425346,142.880493 95.880844,143.812958 
z"/>
<path fill="#414141" opacity="1.000000" stroke="none" 
	d="
M372.369720,79.966110 
	C373.246460,80.247444 374.012878,80.863220 374.785034,81.785416 
	C373.946960,81.494751 373.103210,80.897652 372.369720,79.966110 
z"/>
<path fill="#1C1C1C" opacity="1.000000" stroke="none" 
	d="
M317.242950,117.292419 
	C316.455933,117.916695 315.668915,118.540977 314.568939,119.246643 
	C314.255981,119.328026 314.060669,119.074257 314.134308,118.700836 
	C315.075562,117.815163 315.943146,117.302910 316.920441,116.914703 
	C317.030121,117.038734 317.242950,117.292427 317.242950,117.292419 
z"/>
<path fill="#1C1C1C" opacity="1.000000" stroke="none" 
	d="
M319.895081,114.895645 
	C319.348541,115.758484 318.612854,116.431839 317.560059,117.198807 
	C317.242950,117.292427 317.030121,117.038734 317.014618,116.624695 
	C317.775208,115.582893 318.551300,114.955132 319.327393,114.327370 
	C319.453583,114.453636 319.579742,114.579895 319.895081,114.895645 
z"/>
<path fill="#9C9C9C" opacity="1.000000" stroke="none" 
	d="
M81.899040,133.274567 
	C81.490768,133.849762 80.786583,134.281906 79.795547,134.522552 
	C80.206841,133.931213 80.904984,133.531372 81.899040,133.274567 
z"/>
<path fill="#414141" opacity="1.000000" stroke="none" 
	d="
M376.954742,83.738861 
	C377.669128,83.567970 378.462982,83.745804 379.398193,84.211990 
	C378.704437,84.362762 377.869293,84.225182 376.954742,83.738861 
z"/>
<path fill="#1C1C1C" opacity="1.000000" stroke="none" 
	d="
M191.733643,77.015366 
	C191.900269,77.594856 191.762894,78.182961 191.329453,78.890198 
	C191.165466,78.347549 191.297546,77.685768 191.733643,77.015366 
z"/>
<path fill="#1C1C1C" opacity="1.000000" stroke="none" 
	d="
M322.818054,78.143936 
	C322.143646,77.916245 321.537872,77.313217 320.901672,76.384094 
	C321.543030,76.628204 322.214813,77.198410 322.818054,78.143936 
z"/>
<path fill="#1C1C1C" opacity="1.000000" stroke="none" 
	d="
M259.627777,191.555206 
	C260.056335,191.666458 260.318787,191.936844 260.560760,192.224442 
	C260.567108,192.231949 260.350220,192.427231 260.237457,192.534943 
	C259.977966,192.262177 259.718445,191.989410 259.627777,191.555206 
z"/>
<path fill="#9C9C9C" opacity="1.000000" stroke="none" 
	d="
M96.781738,140.622955 
	C96.619003,140.959579 96.447647,140.973663 96.018494,140.980408 
	C95.642288,140.394089 95.523888,139.815079 95.902824,139.109558 
	C96.578941,138.996277 96.757713,139.009506 96.936485,139.022720 
	C96.882027,139.448624 96.827576,139.874542 96.781738,140.622955 
z"/>
<path fill="#1C1C1C" opacity="1.000000" stroke="none" 
	d="
M314.935425,70.797241 
	C314.258698,70.802505 313.556519,70.437317 312.718445,69.789093 
	C313.358368,69.812965 314.134186,70.119881 314.935425,70.797241 
z"/>
<path fill="#1C1C1C" opacity="1.000000" stroke="none" 
	d="
M196.866226,68.161667 
	C196.892487,68.900002 196.512268,69.667496 195.858566,70.617477 
	C195.876633,69.930244 196.168182,69.060532 196.866226,68.161667 
z"/>
<path fill="#1C1C1C" opacity="1.000000" stroke="none" 
	d="
M106.805809,117.154480 
	C107.236885,117.566338 107.427818,118.145203 107.464142,118.901604 
	C107.061577,118.493256 106.813622,117.907364 106.805809,117.154480 
z"/>
<path fill="#1C1C1C" opacity="1.000000" stroke="none" 
	d="
M190.779510,137.127167 
	C191.421036,137.443863 191.798019,137.901062 192.101105,138.676758 
	C191.523117,138.419403 191.019043,137.843536 190.779510,137.127167 
z"/>
<path fill="#1C1C1C" opacity="1.000000" stroke="none" 
	d="
M97.186981,138.869370 
	C96.757713,139.009506 96.578941,138.996277 96.131523,138.994324 
	C95.857040,138.550430 95.851212,138.095276 95.951492,137.315536 
	C96.517548,137.565979 96.977509,138.141006 97.186981,138.869370 
z"/>
<path fill="#9C9C9C" opacity="1.000000" stroke="none" 
	d="
M92.324112,132.952362 
	C91.665878,133.174194 90.842583,133.116745 89.917877,132.737335 
	C90.597328,132.501266 91.378189,132.587158 92.324112,132.952362 
z"/>
<path fill="#1C1C1C" opacity="1.000000" stroke="none" 
	d="
M276.587097,183.260925 
	C276.439270,183.140915 276.419495,182.933472 276.399750,182.726044 
	C276.504883,182.875198 276.610016,183.024338 276.587097,183.260925 
z"/>
<path fill="#1C1C1C" opacity="1.000000" stroke="none" 
	d="
M97.368744,156.241852 
	C97.383942,156.005310 97.508438,155.877472 97.632935,155.749649 
	C97.581314,155.949951 97.529686,156.150269 97.368744,156.241852 
z"/>
<path fill="#1C1C1C" opacity="1.000000" stroke="none" 
	d="
M157.993927,147.004578 
	C158.108047,147.139481 158.228256,147.269806 158.348450,147.400146 
	C158.270737,147.350464 158.193039,147.300781 158.062164,147.119461 
	C158.008987,146.987823 157.999985,147.000000 157.993927,147.004578 
z"/>
<path fill="#1C1C1C" opacity="1.000000" stroke="none" 
	d="
M60.456642,63.524014 
	C60.429523,63.475510 60.483757,63.572517 60.456642,63.524014 
z"/>
<path fill="#090909" opacity="1.000000" stroke="none" 
	d="
M156.151306,106.864502 
	C154.369324,113.504280 153.630081,120.200439 150.690475,125.726028 
	C145.100708,136.233124 134.155899,135.847610 128.870682,125.172745 
	C122.445717,112.195900 121.343597,98.782822 128.152466,85.446091 
	C130.164841,81.504410 133.038605,78.522484 138.071320,79.894867 
	C141.518723,80.834946 145.408112,78.423347 148.574554,82.499771 
	C152.893600,88.060036 156.380203,93.668816 156.416748,100.901344 
	C156.425995,102.731262 156.276825,104.561974 156.151306,106.864502 
z"/>
<path fill="#0A0A0A" opacity="1.000000" stroke="none" 
	d="
M202.761322,105.048065 
	C202.830246,102.325539 202.899170,99.603020 203.185303,96.215515 
	C203.532364,94.678177 203.662216,93.805817 203.792053,92.933464 
	C203.962921,92.322853 204.133774,91.712242 204.628418,90.664948 
	C205.159317,89.446793 205.366455,88.665314 205.573578,87.883842 
	C205.750870,87.546425 205.928177,87.209015 206.463196,86.503952 
	C207.122360,85.383842 207.423813,84.631371 207.725266,83.878899 
	C210.172348,80.897346 212.945435,78.685455 217.759949,80.115555 
	C219.233032,80.203514 220.108276,80.057693 220.983536,79.911865 
	C224.580200,78.816666 226.595566,81.208237 228.293304,83.592682 
	C230.466583,86.645020 232.240631,89.981621 234.221161,93.839966 
	C234.619156,95.196953 234.982712,95.909706 235.346252,96.622459 
	C235.374176,99.951767 235.402100,103.281075 235.182037,107.253883 
	C234.798828,109.641312 234.663605,111.385231 234.528381,113.129158 
	C234.384155,113.847549 234.239914,114.565941 233.850677,115.872345 
	C233.419922,117.312988 233.234116,118.165619 233.048325,119.018250 
	C232.329132,120.701263 231.609924,122.384270 230.560852,124.502426 
	C229.891129,125.648643 229.551270,126.359695 229.211411,127.070755 
	C221.617966,135.059265 214.930237,135.459335 209.533585,128.127319 
	C208.091141,126.167572 207.048279,123.913704 205.761841,121.150894 
	C205.254440,119.849754 204.807144,119.192604 204.359848,118.535454 
	C204.230698,117.288780 204.101547,116.042114 203.966217,114.009216 
	C203.560455,110.498009 203.160889,107.773041 202.761322,105.048065 
z"/>
<path fill="#BCBCBC" opacity="1.000000" stroke="none" 
	d="
M202.491425,105.328781 
	C203.160889,107.773041 203.560455,110.498009 203.845093,113.652657 
	C203.227264,111.258049 202.724396,108.433777 202.491425,105.328781 
z"/>
<path fill="#BCBCBC" opacity="1.000000" stroke="none" 
	d="
M234.876648,112.971375 
	C234.663605,111.385231 234.798828,109.641312 235.230957,107.669525 
	C235.426895,109.232307 235.325897,111.022949 234.876648,112.971375 
z"/>
<path fill="#BCBCBC" opacity="1.000000" stroke="none" 
	d="
M233.364273,118.998329 
	C233.234116,118.165619 233.419922,117.312988 233.861938,116.239433 
	C233.972198,117.005142 233.826218,117.991776 233.364273,118.998329 
z"/>
<path fill="#BCBCBC" opacity="1.000000" stroke="none" 
	d="
M220.825653,79.655273 
	C220.108276,80.057693 219.233032,80.203514 218.189011,80.111404 
	C218.902756,79.715210 219.785263,79.556946 220.825653,79.655273 
z"/>
<path fill="#BCBCBC" opacity="1.000000" stroke="none" 
	d="
M203.480728,92.966202 
	C203.662216,93.805817 203.532364,94.678177 203.135605,95.764191 
	C202.968918,94.984886 203.069153,93.991913 203.480728,92.966202 
z"/>
<path fill="#BCBCBC" opacity="1.000000" stroke="none" 
	d="
M207.392273,83.936890 
	C207.423813,84.631371 207.122360,85.383842 206.512054,86.221016 
	C206.488571,85.535439 206.773911,84.765167 207.392273,83.936890 
z"/>
<path fill="#BCBCBC" opacity="1.000000" stroke="none" 
	d="
M205.245544,87.976807 
	C205.366455,88.665314 205.159317,89.446793 204.652863,90.347847 
	C204.541519,89.668205 204.729507,88.868988 205.245544,87.976807 
z"/>
<path fill="#BCBCBC" opacity="1.000000" stroke="none" 
	d="
M235.550186,96.326340 
	C234.982712,95.909706 234.619156,95.196953 234.352341,94.182373 
	C234.884094,94.597107 235.319107,95.313660 235.550186,96.326340 
z"/>
<path fill="#BCBCBC" opacity="1.000000" stroke="none" 
	d="
M204.226379,118.852142 
	C204.807144,119.192604 205.254440,119.849754 205.620895,120.815079 
	C205.057693,120.471771 204.575302,119.820305 204.226379,118.852142 
z"/>
<path fill="#BCBCBC" opacity="1.000000" stroke="none" 
	d="
M229.547012,127.029617 
	C229.551270,126.359695 229.891129,125.648643 230.534073,124.845581 
	C230.518967,125.498535 230.200790,126.243500 229.547012,127.029617 
z"/>
<path fill="#0D0D0D" opacity="1.000000" stroke="none" 
	d="
M302.947052,83.126625 
	C303.147644,83.392441 303.348206,83.658257 303.877136,84.279060 
	C305.919159,86.720123 307.632843,88.806206 309.346558,90.892288 
	C309.377747,91.362320 309.408905,91.832367 309.452576,92.965233 
	C308.838196,97.027031 308.211365,100.426003 307.584534,103.824966 
	C307.261078,103.739616 307.016998,103.842537 306.451599,104.380486 
	C303.046204,105.792282 300.041473,106.957321 297.036774,108.122360 
	C296.275421,108.127777 295.514099,108.133194 293.942139,108.193176 
	C291.317566,108.350883 289.497559,108.392128 287.690887,108.569489 
	C283.361450,108.994507 281.748169,107.141815 282.263458,102.816628 
	C282.611145,99.898232 282.352478,96.907585 282.365051,93.949265 
	C282.520203,89.996437 282.493896,86.023407 282.930542,82.101929 
	C283.079987,80.759766 284.389801,79.546822 285.863037,78.409363 
	C292.020081,80.071449 297.483551,81.599037 302.947052,83.126625 
z"/>
<path fill="#EAEAEA" opacity="1.000000" stroke="none" 
	d="
M282.047638,94.089905 
	C282.352478,96.907585 282.611145,99.898232 282.263458,102.816628 
	C281.748169,107.141815 283.361450,108.994507 287.690887,108.569489 
	C289.497559,108.392128 291.317566,108.350883 293.587158,108.341324 
	C291.048706,113.606071 286.855682,110.200623 283.188660,109.819748 
	C279.875275,109.475601 279.708527,106.758133 280.044281,104.199532 
	C280.482452,100.860283 281.157227,97.552094 282.047638,94.089905 
z"/>
<path fill="#EAEAEA" opacity="1.000000" stroke="none" 
	d="
M319.432861,114.031250 
	C318.551300,114.955132 317.775208,115.582893 316.904938,116.500656 
	C315.943146,117.302910 315.075562,117.815163 314.032593,118.577148 
	C313.453217,118.928299 313.049194,119.029701 312.328186,119.104919 
	C313.496185,116.114372 314.981079,113.150009 316.685028,109.748421 
	C317.107391,109.911316 318.499725,110.448303 319.571472,110.861649 
	C321.548859,107.696938 323.330322,104.845802 325.482666,101.988541 
	C324.832794,104.677711 323.812042,107.373009 322.770386,110.428139 
	C321.679077,111.770363 320.608673,112.752747 319.432861,114.031250 
z"/>
<path fill="#EAEAEA" opacity="1.000000" stroke="none" 
	d="
M302.939667,82.754211 
	C297.483551,81.599037 292.020081,80.071449 286.272156,78.293221 
	C290.873016,76.137932 299.520508,78.352409 302.939667,82.754211 
z"/>
<path fill="#EAEAEA" opacity="1.000000" stroke="none" 
	d="
M324.502686,84.554733 
	C325.355377,89.196213 326.002502,94.293251 326.386963,99.707878 
	C325.575592,99.733154 324.559082,99.456879 324.548431,99.146126 
	C324.387024,94.436852 324.357513,89.723038 324.502686,84.554733 
z"/>
<path fill="#EAEAEA" opacity="1.000000" stroke="none" 
	d="
M307.958405,103.859955 
	C308.211365,100.426003 308.838196,97.027031 309.611267,93.284378 
	C313.940399,96.159866 313.517944,99.406624 307.958405,103.859955 
z"/>
<path fill="#EAEAEA" opacity="1.000000" stroke="none" 
	d="
M309.576904,90.610138 
	C307.632843,88.806206 305.919159,86.720123 304.133362,84.301193 
	C308.823608,82.820969 310.025269,84.150917 309.576904,90.610138 
z"/>
<path fill="#EAEAEA" opacity="1.000000" stroke="none" 
	d="
M297.264282,108.393799 
	C300.041473,106.957321 303.046204,105.792282 306.434021,104.592621 
	C305.020264,108.904953 300.819092,107.793060 297.264282,108.393799 
z"/>
<path fill="#EAEAEA" opacity="1.000000" stroke="none" 
	d="
M295.025635,63.579773 
	C295.851166,63.339191 296.730255,63.406067 297.799744,63.752754 
	C297.019806,63.984123 296.049500,63.935677 295.025635,63.579773 
z"/>
<path fill="#EAEAEA" opacity="1.000000" stroke="none" 
	d="
M281.887390,149.520065 
	C281.383698,150.150391 280.957306,150.476746 280.252258,150.805054 
	C280.481354,149.893295 280.989105,148.979568 281.848938,148.050751 
	C282.122223,148.429153 282.043427,148.822617 281.887390,149.520065 
z"/>
<path fill="#EAEAEA" opacity="1.000000" stroke="none" 
	d="
M308.953430,110.591125 
	C308.717529,110.203621 308.719482,109.818497 308.749084,109.435509 
	C308.749908,109.424980 309.048309,109.437477 309.207947,109.439240 
	C309.203644,109.824097 309.199341,110.208954 308.953430,110.591125 
z"/>
<path fill="#EAEAEA" opacity="1.000000" stroke="none" 
	d="
M322.544373,96.469574 
	C322.573090,96.519859 322.515656,96.419296 322.544373,96.469574 
z"/>
</svg>