<?xml version="1.0" standalone="no"?>
<!DOCTYPE svg PUBLIC "-//W3C//DTD SVG 20010904//EN"
 "http://www.w3.org/TR/2001/REC-SVG-20010904/DTD/svg10.dtd">
<svg version="1.0" xmlns="http://www.w3.org/2000/svg"
 width="215.000000pt" height="234.000000pt" viewBox="0 0 215.000000 234.000000"
 preserveAspectRatio="xMidYMid meet">

<g transform="translate(0.000000,234.000000) scale(0.100000,-0.100000)"
fill="#000000" stroke="none">
<path d="M950 2324 c-260 -56 -460 -303 -460 -569 0 -144 66 -300 170 -406
231 -233 594 -235 825 -4 231 231 231 590 0 820 -143 144 -338 202 -535 159z"/>
<path d="M530 1214 c-223 -147 -375 -386 -429 -678 l-9 -48 92 -93 c118 -119
233 -203 370 -270 338 -165 704 -165 1042 0 137 67 252 151 370 270 l92 93 -9
48 c-33 177 -110 351 -213 480 -62 78 -160 166 -238 213 l-37 22 -68 -56
c-249 -206 -587 -206 -835 -1 -37 31 -69 56 -70 56 -2 0 -28 -16 -58 -36z"/>
</g>
</svg>
