<?xml version="1.0" standalone="no"?>
<!DOCTYPE svg PUBLIC "-//W3C//DTD SVG 20010904//EN"
 "http://www.w3.org/TR/2001/REC-SVG-20010904/DTD/svg10.dtd">
<svg version="1.0" xmlns="http://www.w3.org/2000/svg"
 width="310.000000pt" height="308.000000pt" viewBox="0 0 310.000000 308.000000"
 preserveAspectRatio="xMidYMid meet">

<g transform="translate(0.000000,308.000000) scale(0.100000,-0.100000)"
fill="#000000" stroke="none">
<path d="M1329 2890 c-293 -30 -554 -155 -764 -365 -228 -227 -347 -494 -370
-830 -15 -209 53 -482 166 -670 l41 -67 -77 -212 c-132 -363 -137 -377 -131
-383 3 -3 151 35 328 86 178 50 327 91 331 91 5 0 45 -18 90 -39 95 -45 254
-96 347 -111 161 -25 404 -3 565 52 172 59 373 187 501 319 131 136 242 322
297 494 69 218 75 476 18 700 -81 315 -286 586 -581 768 -203 125 -513 193
-761 167z m376 -218 c218 -59 382 -156 526 -309 360 -383 383 -979 54 -1390
-322 -403 -879 -516 -1333 -272 -84 45 -97 46 -183 20 -108 -33 -261 -72 -266
-68 -2 3 22 76 53 162 53 145 56 160 43 181 -8 13 -33 54 -56 91 -91 147 -143
320 -150 503 -9 203 27 365 118 540 153 294 438 501 769 559 88 16 343 6 425
-17z"/>
<path d="M938 2307 c-41 -23 -85 -76 -121 -147 -29 -58 -32 -75 -35 -167 -6
-157 30 -253 166 -448 190 -273 381 -433 640 -537 102 -41 112 -43 212 -43 95
0 110 3 156 27 28 15 72 47 97 71 52 51 70 100 71 192 l1 60 -135 73 c-135 72
-185 93 -207 85 -6 -3 -24 -23 -39 -46 -49 -76 -105 -137 -125 -137 -27 0
-152 64 -213 110 -28 20 -77 64 -109 96 -68 68 -177 226 -177 255 0 11 17 41
39 67 45 54 71 102 71 131 0 23 -114 319 -132 344 -18 24 -124 33 -160 14z"/>
</g>
</svg>
